solid OpenSCAD_Model
  facet normal -1 0 0
    outer loop
      vertex 0 0 9
      vertex 0 8 10
      vertex 0 8 9
    endloop
  endfacet
  facet normal -1 -0 0
    outer loop
      vertex 0 8 10
      vertex 0 0 9
      vertex 0 0 10
    endloop
  endfacet
  facet normal -1 0 0
    outer loop
      vertex 0 8 9
      vertex 0 16 10
      vertex 0 16 9
    endloop
  endfacet
  facet normal -1 -0 0
    outer loop
      vertex 0 16 10
      vertex 0 8 9
      vertex 0 8 10
    endloop
  endfacet
  facet normal 0 0 1
    outer loop
      vertex 43.9924 8.12289 10
      vertex 43.9924 7.87711 10
      vertex 44 8 10
    endloop
  endfacet
  facet normal 0 0 1
    outer loop
      vertex 43.9698 8.24391 10
      vertex 43.9924 7.87711 10
      vertex 43.9924 8.12289 10
    endloop
  endfacet
  facet normal 0 0 1
    outer loop
      vertex 43.9698 8.24391 10
      vertex 43.9698 7.75609 10
      vertex 43.9924 7.87711 10
    endloop
  endfacet
  facet normal 0 0 1
    outer loop
      vertex 43.9325 8.36124 10
      vertex 43.9698 7.75609 10
      vertex 43.9698 8.24391 10
    endloop
  endfacet
  facet normal 0 0 1
    outer loop
      vertex 43.9325 8.36124 10
      vertex 43.9325 7.63876 10
      vertex 43.9698 7.75609 10
    endloop
  endfacet
  facet normal 0 0 1
    outer loop
      vertex 43.881 8.47309 10
      vertex 43.9325 7.63876 10
      vertex 43.9325 8.36124 10
    endloop
  endfacet
  facet normal 0 0 1
    outer loop
      vertex 43.881 8.47309 10
      vertex 43.881 7.52691 10
      vertex 43.9325 7.63876 10
    endloop
  endfacet
  facet normal 0 0 1
    outer loop
      vertex 40 16 10
      vertex 43.881 7.52691 10
      vertex 43.881 8.47309 10
    endloop
  endfacet
  facet normal 0 0 1
    outer loop
      vertex 40 16 10
      vertex 40 0 10
      vertex 43.881 7.52691 10
    endloop
  endfacet
  facet normal 0 0 1
    outer loop
      vertex 0 8 10
      vertex 40 16 10
      vertex 0 16 10
    endloop
  endfacet
  facet normal 0 0 1
    outer loop
      vertex 40 16 10
      vertex 0 8 10
      vertex 40 0 10
    endloop
  endfacet
  facet normal 0 0 1
    outer loop
      vertex 40 0 10
      vertex 0 8 10
      vertex 0 0 10
    endloop
  endfacet
  facet normal 0 -1 0
    outer loop
      vertex 0 0 9
      vertex 40 0 10
      vertex 0 0 10
    endloop
  endfacet
  facet normal 0 -1 -0
    outer loop
      vertex 40 0 10
      vertex 0 0 9
      vertex 40 0 9
    endloop
  endfacet
  facet normal 0 1 -0
    outer loop
      vertex 40 16 9
      vertex 0 16 10
      vertex 40 16 10
    endloop
  endfacet
  facet normal 0 1 0
    outer loop
      vertex 0 16 10
      vertex 40 16 9
      vertex 0 16 9
    endloop
  endfacet
  facet normal 0.888806 0.458285 0
    outer loop
      vertex 43.881 8.47309 10
      vertex 40 16 9
      vertex 40 16 10
    endloop
  endfacet
  facet normal 0.888806 0.458285 0
    outer loop
      vertex 40 16 9
      vertex 43.881 8.47309 10
      vertex 43.881 8.47309 9
    endloop
  endfacet
  facet normal 0.998103 -0.0615633 0
    outer loop
      vertex 43.9924 7.87711 10
      vertex 44 8 9
      vertex 44 8 10
    endloop
  endfacet
  facet normal 0.998103 -0.0615633 0
    outer loop
      vertex 44 8 9
      vertex 43.9924 7.87711 10
      vertex 43.9924 7.87711 9
    endloop
  endfacet
  facet normal 0.888806 -0.458285 0
    outer loop
      vertex 40 0 10
      vertex 43.881 7.52691 9
      vertex 43.881 7.52691 10
    endloop
  endfacet
  facet normal 0.888806 -0.458285 0
    outer loop
      vertex 43.881 7.52691 9
      vertex 40 0 10
      vertex 40 0 9
    endloop
  endfacet
  facet normal 0.982971 -0.18376 0
    outer loop
      vertex 43.9698 7.75609 10
      vertex 43.9924 7.87711 9
      vertex 43.9924 7.87711 10
    endloop
  endfacet
  facet normal 0.982971 -0.18376 0
    outer loop
      vertex 43.9924 7.87711 9
      vertex 43.9698 7.75609 10
      vertex 43.9698 7.75609 9
    endloop
  endfacet
  facet normal 0.908464 0.417963 0
    outer loop
      vertex 43.9325 8.36124 10
      vertex 43.881 8.47309 9
      vertex 43.881 8.47309 10
    endloop
  endfacet
  facet normal 0.908464 0.417963 0
    outer loop
      vertex 43.881 8.47309 9
      vertex 43.9325 8.36124 10
      vertex 43.9325 8.36124 9
    endloop
  endfacet
  facet normal 0.952946 -0.303141 0
    outer loop
      vertex 43.9325 7.63876 10
      vertex 43.9698 7.75609 9
      vertex 43.9698 7.75609 10
    endloop
  endfacet
  facet normal 0.952946 -0.303141 0
    outer loop
      vertex 43.9698 7.75609 9
      vertex 43.9325 7.63876 10
      vertex 43.9325 7.63876 9
    endloop
  endfacet
  facet normal 0.908464 -0.417963 0
    outer loop
      vertex 43.881 7.52691 10
      vertex 43.9325 7.63876 9
      vertex 43.9325 7.63876 10
    endloop
  endfacet
  facet normal 0.908464 -0.417963 0
    outer loop
      vertex 43.9325 7.63876 9
      vertex 43.881 7.52691 10
      vertex 43.881 7.52691 9
    endloop
  endfacet
  facet normal 0.952946 0.303141 0
    outer loop
      vertex 43.9698 8.24391 10
      vertex 43.9325 8.36124 9
      vertex 43.9325 8.36124 10
    endloop
  endfacet
  facet normal 0.952946 0.303141 0
    outer loop
      vertex 43.9325 8.36124 9
      vertex 43.9698 8.24391 10
      vertex 43.9698 8.24391 9
    endloop
  endfacet
  facet normal 0.982971 0.18376 0
    outer loop
      vertex 43.9924 8.12289 10
      vertex 43.9698 8.24391 9
      vertex 43.9698 8.24391 10
    endloop
  endfacet
  facet normal 0.982971 0.18376 0
    outer loop
      vertex 43.9698 8.24391 9
      vertex 43.9924 8.12289 10
      vertex 43.9924 8.12289 9
    endloop
  endfacet
  facet normal 0.998103 0.0615638 0
    outer loop
      vertex 44 8 10
      vertex 43.9924 8.12289 9
      vertex 43.9924 8.12289 10
    endloop
  endfacet
  facet normal 0.998103 0.0615638 0
    outer loop
      vertex 43.9924 8.12289 9
      vertex 44 8 10
      vertex 44 8 9
    endloop
  endfacet
  facet normal -1 0 0
    outer loop
      vertex -7.5 21.75 -1
      vertex -7.5 12 7
      vertex -7.5 21.75 9
    endloop
  endfacet
  facet normal -1 0 0
    outer loop
      vertex -7.5 21.75 -1
      vertex -7.5 4 7
      vertex -7.5 12 7
    endloop
  endfacet
  facet normal -1 0 0
    outer loop
      vertex -7.5 -5.75 -1
      vertex -7.5 4 7
      vertex -7.5 21.75 -1
    endloop
  endfacet
  facet normal -1 0 0
    outer loop
      vertex -7.5 -5.75 9
      vertex -7.5 4 7
      vertex -7.5 -5.75 -1
    endloop
  endfacet
  facet normal -1 0 0
    outer loop
      vertex -7.5 4 7
      vertex -7.5 -5.75 9
      vertex -7.5 4 9
    endloop
  endfacet
  facet normal -1 -0 0
    outer loop
      vertex -7.5 21.75 9
      vertex -7.5 12 7
      vertex -7.5 12 9
    endloop
  endfacet
  facet normal 0 0 1
    outer loop
      vertex 0 8 9
      vertex -0.00193405 7.8756 9
      vertex 0 0 9
    endloop
  endfacet
  facet normal 0 0 1
    outer loop
      vertex 48.4924 8.12289 9
      vertex 48.4924 7.87711 9
      vertex 48.5 8 9
    endloop
  endfacet
  facet normal 0 0 1
    outer loop
      vertex 48.4698 8.24391 9
      vertex 48.4924 7.87711 9
      vertex 48.4924 8.12289 9
    endloop
  endfacet
  facet normal 0 0 1
    outer loop
      vertex 48.4698 8.24391 9
      vertex 48.4698 7.75609 9
      vertex 48.4924 7.87711 9
    endloop
  endfacet
  facet normal 0 0 1
    outer loop
      vertex 48.4325 8.36124 9
      vertex 48.4698 7.75609 9
      vertex 48.4698 8.24391 9
    endloop
  endfacet
  facet normal 0 0 1
    outer loop
      vertex 48.4325 8.36124 9
      vertex 48.4325 7.63876 9
      vertex 48.4698 7.75609 9
    endloop
  endfacet
  facet normal 0 0 1
    outer loop
      vertex 48.381 8.47309 9
      vertex 48.4325 7.63876 9
      vertex 48.4325 8.36124 9
    endloop
  endfacet
  facet normal 0 0 1
    outer loop
      vertex 48.381 8.47309 9
      vertex 48.381 7.52691 9
      vertex 48.4325 7.63876 9
    endloop
  endfacet
  facet normal 0 0 1
    outer loop
      vertex 48.3162 8.57777 9
      vertex 48.381 7.52691 9
      vertex 48.381 8.47309 9
    endloop
  endfacet
  facet normal 0 0 1
    outer loop
      vertex 48.3162 8.57777 9
      vertex 48.3162 7.42223 9
      vertex 48.381 7.52691 9
    endloop
  endfacet
  facet normal 0 0 1
    outer loop
      vertex 48.3162 8.57777 9
      vertex 44 8 9
      vertex 48.3162 7.42223 9
    endloop
  endfacet
  facet normal 0 0 1
    outer loop
      vertex 48.3162 8.57777 9
      vertex 43.9924 8.12289 9
      vertex 44 8 9
    endloop
  endfacet
  facet normal 0 0 1
    outer loop
      vertex 48.3162 8.57777 9
      vertex 43.9698 8.24391 9
      vertex 43.9924 8.12289 9
    endloop
  endfacet
  facet normal 0 0 1
    outer loop
      vertex 48.3162 8.57777 9
      vertex 43.9325 8.36124 9
      vertex 43.9698 8.24391 9
    endloop
  endfacet
  facet normal 0 0 1
    outer loop
      vertex 48.3162 8.57777 9
      vertex 43.881 8.47309 9
      vertex 43.9325 8.36124 9
    endloop
  endfacet
  facet normal -0 0 1
    outer loop
      vertex 40 16 9
      vertex 48.3162 8.57777 9
      vertex 40 21.75 9
    endloop
  endfacet
  facet normal 0 0 1
    outer loop
      vertex 48.3162 8.57777 9
      vertex 40 16 9
      vertex 43.881 8.47309 9
    endloop
  endfacet
  facet normal 0 0 1
    outer loop
      vertex 40 21.75 9
      vertex 0 16 9
      vertex 40 16 9
    endloop
  endfacet
  facet normal 0 0 1
    outer loop
      vertex 0 16 9
      vertex -0.00193405 8.1244 9
      vertex 0 8 9
    endloop
  endfacet
  facet normal 0 0 1
    outer loop
      vertex 0 16 9
      vertex -0.00773716 8.24868 9
      vertex -0.00193405 8.1244 9
    endloop
  endfacet
  facet normal 0 0 1
    outer loop
      vertex 0 16 9
      vertex -0.0174017 8.37272 9
      vertex -0.00773716 8.24868 9
    endloop
  endfacet
  facet normal 0 0 1
    outer loop
      vertex 0 16 9
      vertex -0.03092 8.49639 9
      vertex -0.0174017 8.37272 9
    endloop
  endfacet
  facet normal 0 0 1
    outer loop
      vertex 0 16 9
      vertex -0.0482779 8.61959 9
      vertex -0.03092 8.49639 9
    endloop
  endfacet
  facet normal 0 0 1
    outer loop
      vertex 0 16 9
      vertex -0.069459 8.74219 9
      vertex -0.0482779 8.61959 9
    endloop
  endfacet
  facet normal 0 0 1
    outer loop
      vertex 0 16 9
      vertex -0.0944414 8.86407 9
      vertex -0.069459 8.74219 9
    endloop
  endfacet
  facet normal 0 0 1
    outer loop
      vertex 0 16 9
      vertex -0.123203 8.98512 9
      vertex -0.0944414 8.86407 9
    endloop
  endfacet
  facet normal 0 0 1
    outer loop
      vertex 0 16 9
      vertex -0.155716 9.10521 9
      vertex -0.123203 8.98512 9
    endloop
  endfacet
  facet normal 0 0 1
    outer loop
      vertex 0 16 9
      vertex -0.191947 9.22423 9
      vertex -0.155716 9.10521 9
    endloop
  endfacet
  facet normal 0 0 1
    outer loop
      vertex 0 16 9
      vertex -0.231862 9.34207 9
      vertex -0.191947 9.22423 9
    endloop
  endfacet
  facet normal 0 0 1
    outer loop
      vertex 0 16 9
      vertex -0.275423 9.45861 9
      vertex -0.231862 9.34207 9
    endloop
  endfacet
  facet normal 0 0 1
    outer loop
      vertex 0 16 9
      vertex -0.322587 9.57373 9
      vertex -0.275423 9.45861 9
    endloop
  endfacet
  facet normal 0 0 1
    outer loop
      vertex 0 16 9
      vertex -0.373309 9.68734 9
      vertex -0.322587 9.57373 9
    endloop
  endfacet
  facet normal 0 0 1
    outer loop
      vertex 0 16 9
      vertex -0.42754 9.79931 9
      vertex -0.373309 9.68734 9
    endloop
  endfacet
  facet normal 0 0 1
    outer loop
      vertex 0 16 9
      vertex -0.485226 9.90955 9
      vertex -0.42754 9.79931 9
    endloop
  endfacet
  facet normal 0 0 1
    outer loop
      vertex 0 16 9
      vertex -0.546312 10.0179 9
      vertex -0.485226 9.90955 9
    endloop
  endfacet
  facet normal 0 0 1
    outer loop
      vertex 0 16 9
      vertex -0.610741 10.1244 9
      vertex -0.546312 10.0179 9
    endloop
  endfacet
  facet normal 0 0 1
    outer loop
      vertex 0 16 9
      vertex -0.678448 10.2287 9
      vertex -0.610741 10.1244 9
    endloop
  endfacet
  facet normal 0 0 1
    outer loop
      vertex 0 16 9
      vertex -0.749368 10.331 9
      vertex -0.678448 10.2287 9
    endloop
  endfacet
  facet normal 0 0 1
    outer loop
      vertex 0 16 9
      vertex -0.823433 10.4309 9
      vertex -0.749368 10.331 9
    endloop
  endfacet
  facet normal 0 0 1
    outer loop
      vertex 0 16 9
      vertex -0.900571 10.5285 9
      vertex -0.823433 10.4309 9
    endloop
  endfacet
  facet normal 0 0 1
    outer loop
      vertex 0 16 9
      vertex -0.980708 10.6237 9
      vertex -0.900571 10.5285 9
    endloop
  endfacet
  facet normal 0 0 1
    outer loop
      vertex 0 16 9
      vertex -1.06377 10.7163 9
      vertex -0.980708 10.6237 9
    endloop
  endfacet
  facet normal 0 0 1
    outer loop
      vertex 0 16 9
      vertex -1.14966 10.8063 9
      vertex -1.06377 10.7163 9
    endloop
  endfacet
  facet normal 0 0 1
    outer loop
      vertex 0 16 9
      vertex -1.23832 10.8936 9
      vertex -1.14966 10.8063 9
    endloop
  endfacet
  facet normal 0 0 1
    outer loop
      vertex 0 16 9
      vertex -1.32965 10.9781 9
      vertex -1.23832 10.8936 9
    endloop
  endfacet
  facet normal 0 0 1
    outer loop
      vertex 0 16 9
      vertex -1.42356 11.0597 9
      vertex -1.32965 10.9781 9
    endloop
  endfacet
  facet normal 0 0 1
    outer loop
      vertex 0 16 9
      vertex -1.51996 11.1384 9
      vertex -1.42356 11.0597 9
    endloop
  endfacet
  facet normal 0 0 1
    outer loop
      vertex 0 16 9
      vertex -1.61876 11.214 9
      vertex -1.51996 11.1384 9
    endloop
  endfacet
  facet normal 0 0 1
    outer loop
      vertex 0 16 9
      vertex -1.71987 11.2865 9
      vertex -1.61876 11.214 9
    endloop
  endfacet
  facet normal 0 0 1
    outer loop
      vertex 0 16 9
      vertex -1.82318 11.3558 9
      vertex -1.71987 11.2865 9
    endloop
  endfacet
  facet normal 0 0 1
    outer loop
      vertex 0 16 9
      vertex -1.9286 11.4219 9
      vertex -1.82318 11.3558 9
    endloop
  endfacet
  facet normal 0 0 1
    outer loop
      vertex 0 16 9
      vertex -2.03602 11.4847 9
      vertex -1.9286 11.4219 9
    endloop
  endfacet
  facet normal 0 0 1
    outer loop
      vertex 0 16 9
      vertex -2.14535 11.544 9
      vertex -2.03602 11.4847 9
    endloop
  endfacet
  facet normal 0 0 1
    outer loop
      vertex 0 16 9
      vertex -2.25646 11.6 9
      vertex -2.14535 11.544 9
    endloop
  endfacet
  facet normal 0 0 1
    outer loop
      vertex 0 16 9
      vertex -2.36926 11.6525 9
      vertex -2.25646 11.6 9
    endloop
  endfacet
  facet normal 0 0 1
    outer loop
      vertex 0 16 9
      vertex -2.48365 11.7014 9
      vertex -2.36926 11.6525 9
    endloop
  endfacet
  facet normal 0 0 1
    outer loop
      vertex 0 16 9
      vertex -2.59949 11.7468 9
      vertex -2.48365 11.7014 9
    endloop
  endfacet
  facet normal 0 0 1
    outer loop
      vertex 0 16 9
      vertex -2.7167 11.7886 9
      vertex -2.59949 11.7468 9
    endloop
  endfacet
  facet normal 0 0 1
    outer loop
      vertex 0 16 9
      vertex -2.83514 11.8266 9
      vertex -2.7167 11.7886 9
    endloop
  endfacet
  facet normal 0 0 1
    outer loop
      vertex 0 16 9
      vertex -2.95471 11.861 9
      vertex -2.83514 11.8266 9
    endloop
  endfacet
  facet normal 0 0 1
    outer loop
      vertex 0 16 9
      vertex -3.07529 11.8916 9
      vertex -2.95471 11.861 9
    endloop
  endfacet
  facet normal 0 0 1
    outer loop
      vertex 0 16 9
      vertex -3.19677 11.9185 9
      vertex -3.07529 11.8916 9
    endloop
  endfacet
  facet normal 0 0 1
    outer loop
      vertex 0 16 9
      vertex -3.31903 11.9416 9
      vertex -3.19677 11.9185 9
    endloop
  endfacet
  facet normal 0 0 1
    outer loop
      vertex 0 16 9
      vertex -3.44194 11.9609 9
      vertex -3.31903 11.9416 9
    endloop
  endfacet
  facet normal 0 0 1
    outer loop
      vertex 0 16 9
      vertex -3.56539 11.9763 9
      vertex -3.44194 11.9609 9
    endloop
  endfacet
  facet normal 0 0 1
    outer loop
      vertex 0 16 9
      vertex -3.68926 11.9879 9
      vertex -3.56539 11.9763 9
    endloop
  endfacet
  facet normal 0 0 1
    outer loop
      vertex 0 16 9
      vertex -3.81344 11.9956 9
      vertex -3.68926 11.9879 9
    endloop
  endfacet
  facet normal 0 0 1
    outer loop
      vertex 0 16 9
      vertex -3.93779 11.9995 9
      vertex -3.81344 11.9956 9
    endloop
  endfacet
  facet normal 0 0 1
    outer loop
      vertex 0 16 9
      vertex -4 12 9
      vertex -3.93779 11.9995 9
    endloop
  endfacet
  facet normal -0 0 1
    outer loop
      vertex -7.5 21.75 9
      vertex 0 16 9
      vertex 40 21.75 9
    endloop
  endfacet
  facet normal 0 0 1
    outer loop
      vertex -7.5 21.75 9
      vertex -4 12 9
      vertex 0 16 9
    endloop
  endfacet
  facet normal 0 0 1
    outer loop
      vertex -4 12 9
      vertex -7.5 21.75 9
      vertex -7.5 12 9
    endloop
  endfacet
  facet normal -0 0 1
    outer loop
      vertex 43.9924 7.87711 9
      vertex 48.3162 7.42223 9
      vertex 44 8 9
    endloop
  endfacet
  facet normal -0 0 1
    outer loop
      vertex 43.9698 7.75609 9
      vertex 48.3162 7.42223 9
      vertex 43.9924 7.87711 9
    endloop
  endfacet
  facet normal -0 0 1
    outer loop
      vertex 43.9325 7.63876 9
      vertex 48.3162 7.42223 9
      vertex 43.9698 7.75609 9
    endloop
  endfacet
  facet normal -0 0 1
    outer loop
      vertex 43.881 7.52691 9
      vertex 48.3162 7.42223 9
      vertex 43.9325 7.63876 9
    endloop
  endfacet
  facet normal 0 0 1
    outer loop
      vertex 40 0 9
      vertex 48.3162 7.42223 9
      vertex 43.881 7.52691 9
    endloop
  endfacet
  facet normal -0 0 1
    outer loop
      vertex 40 0 9
      vertex 40 -5.75 9
      vertex 48.3162 7.42223 9
    endloop
  endfacet
  facet normal -0 0 1
    outer loop
      vertex 0 0 9
      vertex 40 -5.75 9
      vertex 40 0 9
    endloop
  endfacet
  facet normal -0 0 1
    outer loop
      vertex -0.00773716 7.75132 9
      vertex 0 0 9
      vertex -0.00193405 7.8756 9
    endloop
  endfacet
  facet normal -0 0 1
    outer loop
      vertex -0.0174017 7.62728 9
      vertex 0 0 9
      vertex -0.00773716 7.75132 9
    endloop
  endfacet
  facet normal -0 0 1
    outer loop
      vertex -0.03092 7.5036 9
      vertex 0 0 9
      vertex -0.0174017 7.62728 9
    endloop
  endfacet
  facet normal -0 0 1
    outer loop
      vertex -0.0482779 7.38041 9
      vertex 0 0 9
      vertex -0.03092 7.5036 9
    endloop
  endfacet
  facet normal -0 0 1
    outer loop
      vertex -0.069459 7.25781 9
      vertex 0 0 9
      vertex -0.0482779 7.38041 9
    endloop
  endfacet
  facet normal -0 0 1
    outer loop
      vertex -0.0944414 7.13593 9
      vertex 0 0 9
      vertex -0.069459 7.25781 9
    endloop
  endfacet
  facet normal -0 0 1
    outer loop
      vertex -0.123203 7.01488 9
      vertex 0 0 9
      vertex -0.0944414 7.13593 9
    endloop
  endfacet
  facet normal -0 0 1
    outer loop
      vertex -0.155716 6.89479 9
      vertex 0 0 9
      vertex -0.123203 7.01488 9
    endloop
  endfacet
  facet normal -0 0 1
    outer loop
      vertex -0.191947 6.77577 9
      vertex 0 0 9
      vertex -0.155716 6.89479 9
    endloop
  endfacet
  facet normal -0 0 1
    outer loop
      vertex -0.231862 6.65793 9
      vertex 0 0 9
      vertex -0.191947 6.77577 9
    endloop
  endfacet
  facet normal -0 0 1
    outer loop
      vertex -0.275423 6.54139 9
      vertex 0 0 9
      vertex -0.231862 6.65793 9
    endloop
  endfacet
  facet normal -0 0 1
    outer loop
      vertex -0.322587 6.42626 9
      vertex 0 0 9
      vertex -0.275423 6.54139 9
    endloop
  endfacet
  facet normal -0 0 1
    outer loop
      vertex -0.373309 6.31266 9
      vertex 0 0 9
      vertex -0.322587 6.42626 9
    endloop
  endfacet
  facet normal -0 0 1
    outer loop
      vertex -0.42754 6.20069 9
      vertex 0 0 9
      vertex -0.373309 6.31266 9
    endloop
  endfacet
  facet normal -0 0 1
    outer loop
      vertex -0.485226 6.09045 9
      vertex 0 0 9
      vertex -0.42754 6.20069 9
    endloop
  endfacet
  facet normal -0 0 1
    outer loop
      vertex -0.546312 5.98207 9
      vertex 0 0 9
      vertex -0.485226 6.09045 9
    endloop
  endfacet
  facet normal -0 0 1
    outer loop
      vertex -0.610741 5.87564 9
      vertex 0 0 9
      vertex -0.546312 5.98207 9
    endloop
  endfacet
  facet normal -0 0 1
    outer loop
      vertex -0.678448 5.77126 9
      vertex 0 0 9
      vertex -0.610741 5.87564 9
    endloop
  endfacet
  facet normal -0 0 1
    outer loop
      vertex -0.749368 5.66903 9
      vertex 0 0 9
      vertex -0.678448 5.77126 9
    endloop
  endfacet
  facet normal -0 0 1
    outer loop
      vertex -0.823433 5.56907 9
      vertex 0 0 9
      vertex -0.749368 5.66903 9
    endloop
  endfacet
  facet normal -0 0 1
    outer loop
      vertex -0.900571 5.47145 9
      vertex 0 0 9
      vertex -0.823433 5.56907 9
    endloop
  endfacet
  facet normal -0 0 1
    outer loop
      vertex -0.980708 5.37629 9
      vertex 0 0 9
      vertex -0.900571 5.47145 9
    endloop
  endfacet
  facet normal -0 0 1
    outer loop
      vertex -1.06377 5.28366 9
      vertex 0 0 9
      vertex -0.980708 5.37629 9
    endloop
  endfacet
  facet normal -0 0 1
    outer loop
      vertex -1.14966 5.19365 9
      vertex 0 0 9
      vertex -1.06377 5.28366 9
    endloop
  endfacet
  facet normal -0 0 1
    outer loop
      vertex -1.23832 5.10636 9
      vertex 0 0 9
      vertex -1.14966 5.19365 9
    endloop
  endfacet
  facet normal -0 0 1
    outer loop
      vertex -1.32965 5.02188 9
      vertex 0 0 9
      vertex -1.23832 5.10636 9
    endloop
  endfacet
  facet normal -0 0 1
    outer loop
      vertex -1.42356 4.94027 9
      vertex 0 0 9
      vertex -1.32965 5.02188 9
    endloop
  endfacet
  facet normal -0 0 1
    outer loop
      vertex -1.51996 4.86162 9
      vertex 0 0 9
      vertex -1.42356 4.94027 9
    endloop
  endfacet
  facet normal -0 0 1
    outer loop
      vertex -1.61876 4.78601 9
      vertex 0 0 9
      vertex -1.51996 4.86162 9
    endloop
  endfacet
  facet normal -0 0 1
    outer loop
      vertex -1.71987 4.71351 9
      vertex 0 0 9
      vertex -1.61876 4.78601 9
    endloop
  endfacet
  facet normal -0 0 1
    outer loop
      vertex -1.82318 4.64419 9
      vertex 0 0 9
      vertex -1.71987 4.71351 9
    endloop
  endfacet
  facet normal -0 0 1
    outer loop
      vertex -1.9286 4.57811 9
      vertex 0 0 9
      vertex -1.82318 4.64419 9
    endloop
  endfacet
  facet normal -0 0 1
    outer loop
      vertex -2.03602 4.51535 9
      vertex 0 0 9
      vertex -1.9286 4.57811 9
    endloop
  endfacet
  facet normal -0 0 1
    outer loop
      vertex -2.14535 4.45595 9
      vertex 0 0 9
      vertex -2.03602 4.51535 9
    endloop
  endfacet
  facet normal -0 0 1
    outer loop
      vertex -2.25646 4.39999 9
      vertex 0 0 9
      vertex -2.14535 4.45595 9
    endloop
  endfacet
  facet normal -0 0 1
    outer loop
      vertex -2.36926 4.34751 9
      vertex 0 0 9
      vertex -2.25646 4.39999 9
    endloop
  endfacet
  facet normal -0 0 1
    outer loop
      vertex -2.48365 4.29856 9
      vertex 0 0 9
      vertex -2.36926 4.34751 9
    endloop
  endfacet
  facet normal -0 0 1
    outer loop
      vertex -2.59949 4.25319 9
      vertex 0 0 9
      vertex -2.48365 4.29856 9
    endloop
  endfacet
  facet normal -0 0 1
    outer loop
      vertex -2.7167 4.21145 9
      vertex 0 0 9
      vertex -2.59949 4.25319 9
    endloop
  endfacet
  facet normal -0 0 1
    outer loop
      vertex -2.83514 4.17337 9
      vertex 0 0 9
      vertex -2.7167 4.21145 9
    endloop
  endfacet
  facet normal -0 0 1
    outer loop
      vertex -2.95471 4.13899 9
      vertex 0 0 9
      vertex -2.83514 4.17337 9
    endloop
  endfacet
  facet normal -0 0 1
    outer loop
      vertex -3.07529 4.10835 9
      vertex 0 0 9
      vertex -2.95471 4.13899 9
    endloop
  endfacet
  facet normal -0 0 1
    outer loop
      vertex -3.19677 4.08148 9
      vertex 0 0 9
      vertex -3.07529 4.10835 9
    endloop
  endfacet
  facet normal -0 0 1
    outer loop
      vertex -3.31903 4.05839 9
      vertex 0 0 9
      vertex -3.19677 4.08148 9
    endloop
  endfacet
  facet normal -0 0 1
    outer loop
      vertex -3.44194 4.03912 9
      vertex 0 0 9
      vertex -3.31903 4.05839 9
    endloop
  endfacet
  facet normal -0 0 1
    outer loop
      vertex -3.56539 4.02368 9
      vertex 0 0 9
      vertex -3.44194 4.03912 9
    endloop
  endfacet
  facet normal -0 0 1
    outer loop
      vertex -3.68926 4.01209 9
      vertex 0 0 9
      vertex -3.56539 4.02368 9
    endloop
  endfacet
  facet normal -0 0 1
    outer loop
      vertex -3.81344 4.00435 9
      vertex 0 0 9
      vertex -3.68926 4.01209 9
    endloop
  endfacet
  facet normal -0 0 1
    outer loop
      vertex -3.93779 4.00048 9
      vertex 0 0 9
      vertex -3.81344 4.00435 9
    endloop
  endfacet
  facet normal -0 0 1
    outer loop
      vertex -4 4 9
      vertex 0 0 9
      vertex -3.93779 4.00048 9
    endloop
  endfacet
  facet normal 0 0 1
    outer loop
      vertex -7.5 -5.75 9
      vertex -4 4 9
      vertex -7.5 4 9
    endloop
  endfacet
  facet normal 0 0 1
    outer loop
      vertex 0 0 9
      vertex -7.5 -5.75 9
      vertex 40 -5.75 9
    endloop
  endfacet
  facet normal 0 0 1
    outer loop
      vertex -4 4 9
      vertex -7.5 -5.75 9
      vertex 0 0 9
    endloop
  endfacet
  facet normal 0 -1 0
    outer loop
      vertex -7.5 -5.75 -1
      vertex 40 -5.75 9
      vertex -7.5 -5.75 9
    endloop
  endfacet
  facet normal 0 -1 -0
    outer loop
      vertex 40 -5.75 9
      vertex -7.5 -5.75 -1
      vertex 40 -5.75 -1
    endloop
  endfacet
  facet normal 0 1 -0
    outer loop
      vertex 40 21.75 -1
      vertex -7.5 21.75 9
      vertex 40 21.75 9
    endloop
  endfacet
  facet normal 0 1 0
    outer loop
      vertex -7.5 21.75 9
      vertex 40 21.75 -1
      vertex -7.5 21.75 -1
    endloop
  endfacet
  facet normal 0 0 -1
    outer loop
      vertex 48.4924 7.87711 -1
      vertex 48.4924 8.12289 -1
      vertex 48.5 8 -1
    endloop
  endfacet
  facet normal 0 0 -1
    outer loop
      vertex 48.4698 7.75609 -1
      vertex 48.4924 8.12289 -1
      vertex 48.4924 7.87711 -1
    endloop
  endfacet
  facet normal 0 0 -1
    outer loop
      vertex 48.4698 7.75609 -1
      vertex 48.4698 8.24391 -1
      vertex 48.4924 8.12289 -1
    endloop
  endfacet
  facet normal 0 0 -1
    outer loop
      vertex 48.4325 7.63876 -1
      vertex 48.4698 8.24391 -1
      vertex 48.4698 7.75609 -1
    endloop
  endfacet
  facet normal 0 0 -1
    outer loop
      vertex 48.4325 7.63876 -1
      vertex 48.4325 8.36124 -1
      vertex 48.4698 8.24391 -1
    endloop
  endfacet
  facet normal 0 0 -1
    outer loop
      vertex 48.381 7.52691 -1
      vertex 48.4325 8.36124 -1
      vertex 48.4325 7.63876 -1
    endloop
  endfacet
  facet normal 0 0 -1
    outer loop
      vertex 48.381 7.52691 -1
      vertex 48.381 8.47309 -1
      vertex 48.4325 8.36124 -1
    endloop
  endfacet
  facet normal 0 0 -1
    outer loop
      vertex 48.3162 7.42223 -1
      vertex 48.381 8.47309 -1
      vertex 48.381 7.52691 -1
    endloop
  endfacet
  facet normal 0 0 -1
    outer loop
      vertex 48.3162 7.42223 -1
      vertex 48.3162 8.57777 -1
      vertex 48.381 8.47309 -1
    endloop
  endfacet
  facet normal 0 0 -1
    outer loop
      vertex 40 -5.75 -1
      vertex 48.3162 8.57777 -1
      vertex 48.3162 7.42223 -1
    endloop
  endfacet
  facet normal 0 0 -1
    outer loop
      vertex 40 -5.75 -1
      vertex 40 21.75 -1
      vertex 48.3162 8.57777 -1
    endloop
  endfacet
  facet normal 0 0 -1
    outer loop
      vertex -7.5 -5.75 -1
      vertex 40 21.75 -1
      vertex 40 -5.75 -1
    endloop
  endfacet
  facet normal -0 0 -1
    outer loop
      vertex 40 21.75 -1
      vertex -7.5 -5.75 -1
      vertex -7.5 21.75 -1
    endloop
  endfacet
  facet normal 0.998103 -0.0615633 0
    outer loop
      vertex 48.4924 7.87711 9
      vertex 48.5 8 -1
      vertex 48.5 8 9
    endloop
  endfacet
  facet normal 0.998103 -0.0615633 0
    outer loop
      vertex 48.5 8 -1
      vertex 48.4924 7.87711 9
      vertex 48.4924 7.87711 -1
    endloop
  endfacet
  facet normal 0.845579 0.533851 0
    outer loop
      vertex 48.3162 8.57777 9
      vertex 40 21.75 -1
      vertex 40 21.75 9
    endloop
  endfacet
  facet normal 0.845579 0.533851 0
    outer loop
      vertex 40 21.75 -1
      vertex 48.3162 8.57777 9
      vertex 48.3162 8.57777 -1
    endloop
  endfacet
  facet normal 0.982971 -0.18376 0
    outer loop
      vertex 48.4698 7.75609 9
      vertex 48.4924 7.87711 -1
      vertex 48.4924 7.87711 9
    endloop
  endfacet
  facet normal 0.982971 -0.18376 0
    outer loop
      vertex 48.4924 7.87711 -1
      vertex 48.4698 7.75609 9
      vertex 48.4698 7.75609 -1
    endloop
  endfacet
  facet normal 0.850216 -0.526434 0
    outer loop
      vertex 48.3162 7.42223 9
      vertex 48.381 7.52691 -1
      vertex 48.381 7.52691 9
    endloop
  endfacet
  facet normal 0.850216 -0.526434 0
    outer loop
      vertex 48.381 7.52691 -1
      vertex 48.3162 7.42223 9
      vertex 48.3162 7.42223 -1
    endloop
  endfacet
  facet normal 0.845579 -0.533851 0
    outer loop
      vertex 40 -5.75 9
      vertex 48.3162 7.42223 -1
      vertex 48.3162 7.42223 9
    endloop
  endfacet
  facet normal 0.845579 -0.533851 0
    outer loop
      vertex 48.3162 7.42223 -1
      vertex 40 -5.75 9
      vertex 40 -5.75 -1
    endloop
  endfacet
  facet normal 0.908464 0.417963 0
    outer loop
      vertex 48.4325 8.36124 9
      vertex 48.381 8.47309 -1
      vertex 48.381 8.47309 9
    endloop
  endfacet
  facet normal 0.908464 0.417963 0
    outer loop
      vertex 48.381 8.47309 -1
      vertex 48.4325 8.36124 9
      vertex 48.4325 8.36124 -1
    endloop
  endfacet
  facet normal 0.850216 0.526434 0
    outer loop
      vertex 48.381 8.47309 9
      vertex 48.3162 8.57777 -1
      vertex 48.3162 8.57777 9
    endloop
  endfacet
  facet normal 0.850216 0.526434 0
    outer loop
      vertex 48.3162 8.57777 -1
      vertex 48.381 8.47309 9
      vertex 48.381 8.47309 -1
    endloop
  endfacet
  facet normal 0.952946 -0.303141 0
    outer loop
      vertex 48.4325 7.63876 9
      vertex 48.4698 7.75609 -1
      vertex 48.4698 7.75609 9
    endloop
  endfacet
  facet normal 0.952946 -0.303141 0
    outer loop
      vertex 48.4698 7.75609 -1
      vertex 48.4325 7.63876 9
      vertex 48.4325 7.63876 -1
    endloop
  endfacet
  facet normal 0.908464 -0.417963 0
    outer loop
      vertex 48.381 7.52691 9
      vertex 48.4325 7.63876 -1
      vertex 48.4325 7.63876 9
    endloop
  endfacet
  facet normal 0.908464 -0.417963 0
    outer loop
      vertex 48.4325 7.63876 -1
      vertex 48.381 7.52691 9
      vertex 48.381 7.52691 -1
    endloop
  endfacet
  facet normal 0.952946 0.303141 0
    outer loop
      vertex 48.4698 8.24391 9
      vertex 48.4325 8.36124 -1
      vertex 48.4325 8.36124 9
    endloop
  endfacet
  facet normal 0.952946 0.303141 0
    outer loop
      vertex 48.4325 8.36124 -1
      vertex 48.4698 8.24391 9
      vertex 48.4698 8.24391 -1
    endloop
  endfacet
  facet normal 0.982971 0.18376 0
    outer loop
      vertex 48.4924 8.12289 9
      vertex 48.4698 8.24391 -1
      vertex 48.4698 8.24391 9
    endloop
  endfacet
  facet normal 0.982971 0.18376 0
    outer loop
      vertex 48.4698 8.24391 -1
      vertex 48.4924 8.12289 9
      vertex 48.4924 8.12289 -1
    endloop
  endfacet
  facet normal 0.998103 0.0615638 0
    outer loop
      vertex 48.5 8 9
      vertex 48.4924 8.12289 -1
      vertex 48.4924 8.12289 9
    endloop
  endfacet
  facet normal 0.998103 0.0615638 0
    outer loop
      vertex 48.4924 8.12289 -1
      vertex 48.5 8 9
      vertex 48.5 8 -1
    endloop
  endfacet
  facet normal 0 1 -0
    outer loop
      vertex -4 4 7
      vertex -7.5 4 9
      vertex -4 4 9
    endloop
  endfacet
  facet normal 0 1 0
    outer loop
      vertex -7.5 4 9
      vertex -4 4 7
      vertex -7.5 4 7
    endloop
  endfacet
  facet normal 0 -1 0
    outer loop
      vertex -7.5 12 7
      vertex -4 12 9
      vertex -7.5 12 9
    endloop
  endfacet
  facet normal 0 -1 -0
    outer loop
      vertex -4 12 9
      vertex -7.5 12 7
      vertex -4 12 7
    endloop
  endfacet
  facet normal 0 0 1
    outer loop
      vertex -0.00193405 8.1244 7
      vertex -0.00193405 7.8756 7
      vertex 0 8 7
    endloop
  endfacet
  facet normal 0 0 1
    outer loop
      vertex -0.00773716 8.24868 7
      vertex -0.00193405 7.8756 7
      vertex -0.00193405 8.1244 7
    endloop
  endfacet
  facet normal 0 0 1
    outer loop
      vertex -0.00773716 8.24868 7
      vertex -0.00773716 7.75132 7
      vertex -0.00193405 7.8756 7
    endloop
  endfacet
  facet normal 0 0 1
    outer loop
      vertex -0.0174017 8.37272 7
      vertex -0.00773716 7.75132 7
      vertex -0.00773716 8.24868 7
    endloop
  endfacet
  facet normal 0 0 1
    outer loop
      vertex -0.0174017 8.37272 7
      vertex -0.0174017 7.62728 7
      vertex -0.00773716 7.75132 7
    endloop
  endfacet
  facet normal 0 0 1
    outer loop
      vertex -0.03092 8.49639 7
      vertex -0.0174017 7.62728 7
      vertex -0.0174017 8.37272 7
    endloop
  endfacet
  facet normal 0 0 1
    outer loop
      vertex -0.03092 8.49639 7
      vertex -0.03092 7.5036 7
      vertex -0.0174017 7.62728 7
    endloop
  endfacet
  facet normal 0 0 1
    outer loop
      vertex -0.0482779 8.61959 7
      vertex -0.03092 7.5036 7
      vertex -0.03092 8.49639 7
    endloop
  endfacet
  facet normal 0 0 1
    outer loop
      vertex -0.0482779 8.61959 7
      vertex -0.0482779 7.38041 7
      vertex -0.03092 7.5036 7
    endloop
  endfacet
  facet normal 0 0 1
    outer loop
      vertex -0.069459 8.74219 7
      vertex -0.0482779 7.38041 7
      vertex -0.0482779 8.61959 7
    endloop
  endfacet
  facet normal 0 0 1
    outer loop
      vertex -0.069459 8.74219 7
      vertex -0.069459 7.25781 7
      vertex -0.0482779 7.38041 7
    endloop
  endfacet
  facet normal 0 0 1
    outer loop
      vertex -0.0944414 8.86407 7
      vertex -0.069459 7.25781 7
      vertex -0.069459 8.74219 7
    endloop
  endfacet
  facet normal 0 0 1
    outer loop
      vertex -0.0944414 8.86407 7
      vertex -0.0944414 7.13593 7
      vertex -0.069459 7.25781 7
    endloop
  endfacet
  facet normal 0 0 1
    outer loop
      vertex -0.123203 8.98512 7
      vertex -0.0944414 7.13593 7
      vertex -0.0944414 8.86407 7
    endloop
  endfacet
  facet normal 0 0 1
    outer loop
      vertex -0.123203 8.98512 7
      vertex -0.123203 7.01488 7
      vertex -0.0944414 7.13593 7
    endloop
  endfacet
  facet normal 0 0 1
    outer loop
      vertex -0.155716 9.10521 7
      vertex -0.123203 7.01488 7
      vertex -0.123203 8.98512 7
    endloop
  endfacet
  facet normal 0 0 1
    outer loop
      vertex -0.155716 9.10521 7
      vertex -0.155716 6.89479 7
      vertex -0.123203 7.01488 7
    endloop
  endfacet
  facet normal 0 0 1
    outer loop
      vertex -0.191947 9.22423 7
      vertex -0.155716 6.89479 7
      vertex -0.155716 9.10521 7
    endloop
  endfacet
  facet normal 0 0 1
    outer loop
      vertex -0.191947 9.22423 7
      vertex -0.191947 6.77577 7
      vertex -0.155716 6.89479 7
    endloop
  endfacet
  facet normal 0 0 1
    outer loop
      vertex -0.231862 9.34207 7
      vertex -0.191947 6.77577 7
      vertex -0.191947 9.22423 7
    endloop
  endfacet
  facet normal 0 0 1
    outer loop
      vertex -0.231862 9.34207 7
      vertex -0.231862 6.65793 7
      vertex -0.191947 6.77577 7
    endloop
  endfacet
  facet normal 0 0 1
    outer loop
      vertex -0.275423 9.45861 7
      vertex -0.231862 6.65793 7
      vertex -0.231862 9.34207 7
    endloop
  endfacet
  facet normal 0 0 1
    outer loop
      vertex -0.275423 9.45861 7
      vertex -0.275423 6.54139 7
      vertex -0.231862 6.65793 7
    endloop
  endfacet
  facet normal 0 0 1
    outer loop
      vertex -0.322587 9.57373 7
      vertex -0.275423 6.54139 7
      vertex -0.275423 9.45861 7
    endloop
  endfacet
  facet normal 0 0 1
    outer loop
      vertex -0.322587 9.57373 7
      vertex -0.322587 6.42626 7
      vertex -0.275423 6.54139 7
    endloop
  endfacet
  facet normal 0 0 1
    outer loop
      vertex -0.373309 9.68734 7
      vertex -0.322587 6.42626 7
      vertex -0.322587 9.57373 7
    endloop
  endfacet
  facet normal 0 0 1
    outer loop
      vertex -0.373309 9.68734 7
      vertex -0.373309 6.31266 7
      vertex -0.322587 6.42626 7
    endloop
  endfacet
  facet normal 0 0 1
    outer loop
      vertex -0.42754 9.79931 7
      vertex -0.373309 6.31266 7
      vertex -0.373309 9.68734 7
    endloop
  endfacet
  facet normal 0 0 1
    outer loop
      vertex -0.42754 9.79931 7
      vertex -0.42754 6.20069 7
      vertex -0.373309 6.31266 7
    endloop
  endfacet
  facet normal 0 0 1
    outer loop
      vertex -0.485226 9.90955 7
      vertex -0.42754 6.20069 7
      vertex -0.42754 9.79931 7
    endloop
  endfacet
  facet normal 0 0 1
    outer loop
      vertex -0.485226 9.90955 7
      vertex -0.485226 6.09045 7
      vertex -0.42754 6.20069 7
    endloop
  endfacet
  facet normal 0 0 1
    outer loop
      vertex -0.546312 10.0179 7
      vertex -0.485226 6.09045 7
      vertex -0.485226 9.90955 7
    endloop
  endfacet
  facet normal 0 0 1
    outer loop
      vertex -0.546312 10.0179 7
      vertex -0.546312 5.98207 7
      vertex -0.485226 6.09045 7
    endloop
  endfacet
  facet normal 0 0 1
    outer loop
      vertex -0.610741 10.1244 7
      vertex -0.546312 5.98207 7
      vertex -0.546312 10.0179 7
    endloop
  endfacet
  facet normal 0 0 1
    outer loop
      vertex -0.610741 10.1244 7
      vertex -0.610741 5.87564 7
      vertex -0.546312 5.98207 7
    endloop
  endfacet
  facet normal 0 0 1
    outer loop
      vertex -0.678448 10.2287 7
      vertex -0.610741 5.87564 7
      vertex -0.610741 10.1244 7
    endloop
  endfacet
  facet normal 0 0 1
    outer loop
      vertex -0.678448 10.2287 7
      vertex -0.678448 5.77126 7
      vertex -0.610741 5.87564 7
    endloop
  endfacet
  facet normal 0 0 1
    outer loop
      vertex -0.749368 10.331 7
      vertex -0.678448 5.77126 7
      vertex -0.678448 10.2287 7
    endloop
  endfacet
  facet normal 0 0 1
    outer loop
      vertex -0.749368 10.331 7
      vertex -0.749368 5.66903 7
      vertex -0.678448 5.77126 7
    endloop
  endfacet
  facet normal 0 0 1
    outer loop
      vertex -0.823433 10.4309 7
      vertex -0.749368 5.66903 7
      vertex -0.749368 10.331 7
    endloop
  endfacet
  facet normal 0 0 1
    outer loop
      vertex -0.823433 10.4309 7
      vertex -0.823433 5.56907 7
      vertex -0.749368 5.66903 7
    endloop
  endfacet
  facet normal 0 0 1
    outer loop
      vertex -0.900571 10.5285 7
      vertex -0.823433 5.56907 7
      vertex -0.823433 10.4309 7
    endloop
  endfacet
  facet normal 0 0 1
    outer loop
      vertex -0.900571 10.5285 7
      vertex -0.900571 5.47145 7
      vertex -0.823433 5.56907 7
    endloop
  endfacet
  facet normal 0 0 1
    outer loop
      vertex -0.980708 10.6237 7
      vertex -0.900571 5.47145 7
      vertex -0.900571 10.5285 7
    endloop
  endfacet
  facet normal 0 0 1
    outer loop
      vertex -0.980708 10.6237 7
      vertex -0.980708 5.37629 7
      vertex -0.900571 5.47145 7
    endloop
  endfacet
  facet normal 0 0 1
    outer loop
      vertex -1.06377 10.7163 7
      vertex -0.980708 5.37629 7
      vertex -0.980708 10.6237 7
    endloop
  endfacet
  facet normal 0 0 1
    outer loop
      vertex -1.06377 10.7163 7
      vertex -1.06377 5.28366 7
      vertex -0.980708 5.37629 7
    endloop
  endfacet
  facet normal 0 0 1
    outer loop
      vertex -1.14966 10.8063 7
      vertex -1.06377 5.28366 7
      vertex -1.06377 10.7163 7
    endloop
  endfacet
  facet normal 0 0 1
    outer loop
      vertex -1.14966 10.8063 7
      vertex -1.14966 5.19365 7
      vertex -1.06377 5.28366 7
    endloop
  endfacet
  facet normal 0 0 1
    outer loop
      vertex -1.23832 10.8936 7
      vertex -1.14966 5.19365 7
      vertex -1.14966 10.8063 7
    endloop
  endfacet
  facet normal 0 0 1
    outer loop
      vertex -1.23832 10.8936 7
      vertex -1.23832 5.10636 7
      vertex -1.14966 5.19365 7
    endloop
  endfacet
  facet normal 0 0 1
    outer loop
      vertex -1.32965 10.9781 7
      vertex -1.23832 5.10636 7
      vertex -1.23832 10.8936 7
    endloop
  endfacet
  facet normal 0 0 1
    outer loop
      vertex -1.32965 10.9781 7
      vertex -1.32965 5.02188 7
      vertex -1.23832 5.10636 7
    endloop
  endfacet
  facet normal 0 0 1
    outer loop
      vertex -1.42356 11.0597 7
      vertex -1.32965 5.02188 7
      vertex -1.32965 10.9781 7
    endloop
  endfacet
  facet normal 0 0 1
    outer loop
      vertex -1.42356 11.0597 7
      vertex -1.42356 4.94027 7
      vertex -1.32965 5.02188 7
    endloop
  endfacet
  facet normal 0 0 1
    outer loop
      vertex -1.51996 11.1384 7
      vertex -1.42356 4.94027 7
      vertex -1.42356 11.0597 7
    endloop
  endfacet
  facet normal 0 0 1
    outer loop
      vertex -1.51996 11.1384 7
      vertex -1.51996 4.86162 7
      vertex -1.42356 4.94027 7
    endloop
  endfacet
  facet normal 0 0 1
    outer loop
      vertex -1.61876 11.214 7
      vertex -1.51996 4.86162 7
      vertex -1.51996 11.1384 7
    endloop
  endfacet
  facet normal 0 0 1
    outer loop
      vertex -1.61876 11.214 7
      vertex -1.61876 4.78601 7
      vertex -1.51996 4.86162 7
    endloop
  endfacet
  facet normal 0 0 1
    outer loop
      vertex -1.71987 11.2865 7
      vertex -1.61876 4.78601 7
      vertex -1.61876 11.214 7
    endloop
  endfacet
  facet normal 0 0 1
    outer loop
      vertex -1.71987 11.2865 7
      vertex -1.71987 4.71351 7
      vertex -1.61876 4.78601 7
    endloop
  endfacet
  facet normal 0 0 1
    outer loop
      vertex -1.82318 11.3558 7
      vertex -1.71987 4.71351 7
      vertex -1.71987 11.2865 7
    endloop
  endfacet
  facet normal 0 0 1
    outer loop
      vertex -1.82318 11.3558 7
      vertex -1.82318 4.64419 7
      vertex -1.71987 4.71351 7
    endloop
  endfacet
  facet normal 0 0 1
    outer loop
      vertex -1.9286 11.4219 7
      vertex -1.82318 4.64419 7
      vertex -1.82318 11.3558 7
    endloop
  endfacet
  facet normal 0 0 1
    outer loop
      vertex -1.9286 11.4219 7
      vertex -1.9286 4.57811 7
      vertex -1.82318 4.64419 7
    endloop
  endfacet
  facet normal 0 0 1
    outer loop
      vertex -2.03602 11.4847 7
      vertex -1.9286 4.57811 7
      vertex -1.9286 11.4219 7
    endloop
  endfacet
  facet normal 0 0 1
    outer loop
      vertex -2.03602 11.4847 7
      vertex -2.03602 4.51535 7
      vertex -1.9286 4.57811 7
    endloop
  endfacet
  facet normal 0 0 1
    outer loop
      vertex -2.14535 11.544 7
      vertex -2.03602 4.51535 7
      vertex -2.03602 11.4847 7
    endloop
  endfacet
  facet normal 0 0 1
    outer loop
      vertex -2.14535 11.544 7
      vertex -2.14535 4.45595 7
      vertex -2.03602 4.51535 7
    endloop
  endfacet
  facet normal 0 0 1
    outer loop
      vertex -2.25646 11.6 7
      vertex -2.14535 4.45595 7
      vertex -2.14535 11.544 7
    endloop
  endfacet
  facet normal 0 0 1
    outer loop
      vertex -2.25646 11.6 7
      vertex -2.25646 4.39999 7
      vertex -2.14535 4.45595 7
    endloop
  endfacet
  facet normal 0 0 1
    outer loop
      vertex -2.36926 11.6525 7
      vertex -2.25646 4.39999 7
      vertex -2.25646 11.6 7
    endloop
  endfacet
  facet normal 0 0 1
    outer loop
      vertex -2.36926 11.6525 7
      vertex -2.36926 4.34751 7
      vertex -2.25646 4.39999 7
    endloop
  endfacet
  facet normal 0 0 1
    outer loop
      vertex -2.48365 11.7014 7
      vertex -2.36926 4.34751 7
      vertex -2.36926 11.6525 7
    endloop
  endfacet
  facet normal 0 0 1
    outer loop
      vertex -2.48365 11.7014 7
      vertex -2.48365 4.29856 7
      vertex -2.36926 4.34751 7
    endloop
  endfacet
  facet normal 0 0 1
    outer loop
      vertex -2.59949 11.7468 7
      vertex -2.48365 4.29856 7
      vertex -2.48365 11.7014 7
    endloop
  endfacet
  facet normal 0 0 1
    outer loop
      vertex -2.59949 11.7468 7
      vertex -2.59949 4.25319 7
      vertex -2.48365 4.29856 7
    endloop
  endfacet
  facet normal 0 0 1
    outer loop
      vertex -2.7167 11.7886 7
      vertex -2.59949 4.25319 7
      vertex -2.59949 11.7468 7
    endloop
  endfacet
  facet normal 0 0 1
    outer loop
      vertex -2.7167 11.7886 7
      vertex -2.7167 4.21145 7
      vertex -2.59949 4.25319 7
    endloop
  endfacet
  facet normal 0 0 1
    outer loop
      vertex -2.83514 11.8266 7
      vertex -2.7167 4.21145 7
      vertex -2.7167 11.7886 7
    endloop
  endfacet
  facet normal 0 0 1
    outer loop
      vertex -2.83514 11.8266 7
      vertex -2.83514 4.17337 7
      vertex -2.7167 4.21145 7
    endloop
  endfacet
  facet normal 0 0 1
    outer loop
      vertex -2.95471 11.861 7
      vertex -2.83514 4.17337 7
      vertex -2.83514 11.8266 7
    endloop
  endfacet
  facet normal 0 0 1
    outer loop
      vertex -2.95471 11.861 7
      vertex -2.95471 4.13899 7
      vertex -2.83514 4.17337 7
    endloop
  endfacet
  facet normal 0 0 1
    outer loop
      vertex -3.07529 11.8916 7
      vertex -2.95471 4.13899 7
      vertex -2.95471 11.861 7
    endloop
  endfacet
  facet normal 0 0 1
    outer loop
      vertex -3.07529 11.8916 7
      vertex -3.07529 4.10835 7
      vertex -2.95471 4.13899 7
    endloop
  endfacet
  facet normal 0 0 1
    outer loop
      vertex -3.19677 11.9185 7
      vertex -3.07529 4.10835 7
      vertex -3.07529 11.8916 7
    endloop
  endfacet
  facet normal 0 0 1
    outer loop
      vertex -3.19677 11.9185 7
      vertex -3.19677 4.08148 7
      vertex -3.07529 4.10835 7
    endloop
  endfacet
  facet normal 0 0 1
    outer loop
      vertex -3.31903 11.9416 7
      vertex -3.19677 4.08148 7
      vertex -3.19677 11.9185 7
    endloop
  endfacet
  facet normal 0 0 1
    outer loop
      vertex -3.31903 11.9416 7
      vertex -3.31903 4.05839 7
      vertex -3.19677 4.08148 7
    endloop
  endfacet
  facet normal 0 0 1
    outer loop
      vertex -3.44194 11.9609 7
      vertex -3.31903 4.05839 7
      vertex -3.31903 11.9416 7
    endloop
  endfacet
  facet normal 0 0 1
    outer loop
      vertex -3.44194 11.9609 7
      vertex -3.44194 4.03912 7
      vertex -3.31903 4.05839 7
    endloop
  endfacet
  facet normal 0 0 1
    outer loop
      vertex -3.56539 11.9763 7
      vertex -3.44194 4.03912 7
      vertex -3.44194 11.9609 7
    endloop
  endfacet
  facet normal 0 0 1
    outer loop
      vertex -3.56539 11.9763 7
      vertex -3.56539 4.02368 7
      vertex -3.44194 4.03912 7
    endloop
  endfacet
  facet normal 0 0 1
    outer loop
      vertex -3.68926 11.9879 7
      vertex -3.56539 4.02368 7
      vertex -3.56539 11.9763 7
    endloop
  endfacet
  facet normal 0 0 1
    outer loop
      vertex -3.68926 11.9879 7
      vertex -3.68926 4.01209 7
      vertex -3.56539 4.02368 7
    endloop
  endfacet
  facet normal 0 0 1
    outer loop
      vertex -3.81344 11.9956 7
      vertex -3.68926 4.01209 7
      vertex -3.68926 11.9879 7
    endloop
  endfacet
  facet normal 0 0 1
    outer loop
      vertex -3.81344 11.9956 7
      vertex -3.81344 4.00435 7
      vertex -3.68926 4.01209 7
    endloop
  endfacet
  facet normal 0 0 1
    outer loop
      vertex -3.93779 11.9995 7
      vertex -3.81344 4.00435 7
      vertex -3.81344 11.9956 7
    endloop
  endfacet
  facet normal 0 0 1
    outer loop
      vertex -3.93779 11.9995 7
      vertex -3.93779 4.00048 7
      vertex -3.81344 4.00435 7
    endloop
  endfacet
  facet normal 0 0 1
    outer loop
      vertex -4 12 7
      vertex -3.93779 4.00048 7
      vertex -3.93779 11.9995 7
    endloop
  endfacet
  facet normal 0 0 1
    outer loop
      vertex -4 12 7
      vertex -4 4 7
      vertex -3.93779 4.00048 7
    endloop
  endfacet
  facet normal -0 0 1
    outer loop
      vertex -7.5 12 7
      vertex -4 4 7
      vertex -4 12 7
    endloop
  endfacet
  facet normal 0 0 1
    outer loop
      vertex -4 4 7
      vertex -7.5 12 7
      vertex -7.5 4 7
    endloop
  endfacet
  facet normal -0.00777226 0.99997 0
    outer loop
      vertex -3.93779 4.00048 7
      vertex -4 4 9
      vertex -3.93779 4.00048 9
    endloop
  endfacet
  facet normal -0.00777226 0.99997 0
    outer loop
      vertex -4 4 9
      vertex -3.93779 4.00048 7
      vertex -4 4 7
    endloop
  endfacet
  facet normal -0.246278 0.969199 0
    outer loop
      vertex -2.95471 4.13899 7
      vertex -3.07529 4.10835 9
      vertex -2.95471 4.13899 9
    endloop
  endfacet
  facet normal -0.246278 0.969199 0
    outer loop
      vertex -3.07529 4.10835 9
      vertex -2.95471 4.13899 7
      vertex -3.07529 4.10835 7
    endloop
  endfacet
  facet normal -0.871163 0.490994 0
    outer loop
      vertex -0.546312 5.98207 7
      vertex -0.485226 6.09045 9
      vertex -0.485226 6.09045 7
    endloop
  endfacet
  facet normal -0.871163 0.490994 0
    outer loop
      vertex -0.485226 6.09045 9
      vertex -0.546312 5.98207 7
      vertex -0.546312 5.98207 9
    endloop
  endfacet
  facet normal -0.504485 -0.863421 0
    outer loop
      vertex -2.03602 11.4847 7
      vertex -1.9286 11.4219 9
      vertex -2.03602 11.4847 9
    endloop
  endfacet
  facet normal -0.504485 -0.863421 -0
    outer loop
      vertex -1.9286 11.4219 9
      vertex -2.03602 11.4847 7
      vertex -1.9286 11.4219 7
    endloop
  endfacet
  facet normal -0.216016 0.97639 0
    outer loop
      vertex -3.07529 4.10835 7
      vertex -3.19677 4.08148 9
      vertex -3.07529 4.10835 9
    endloop
  endfacet
  facet normal -0.216016 0.97639 0
    outer loop
      vertex -3.19677 4.08148 9
      vertex -3.07529 4.10835 7
      vertex -3.19677 4.08148 7
    endloop
  endfacet
  facet normal -0.744532 0.667587 0
    outer loop
      vertex -1.06377 5.28366 7
      vertex -0.980708 5.37629 9
      vertex -0.980708 5.37629 7
    endloop
  endfacet
  facet normal -0.744532 0.667587 0
    outer loop
      vertex -0.980708 5.37629 9
      vertex -1.06377 5.28366 7
      vertex -1.06377 5.28366 9
    endloop
  endfacet
  facet normal -0.364645 0.931147 0
    outer loop
      vertex -2.48365 4.29856 7
      vertex -2.59949 4.25319 9
      vertex -2.48365 4.29856 9
    endloop
  endfacet
  facet normal -0.364645 0.931147 0
    outer loop
      vertex -2.59949 4.25319 9
      vertex -2.48365 4.29856 7
      vertex -2.59949 4.25319 7
    endloop
  endfacet
  facet normal -0.335518 0.942034 0
    outer loop
      vertex -2.59949 4.25319 7
      vertex -2.7167 4.21145 9
      vertex -2.59949 4.25319 9
    endloop
  endfacet
  facet normal -0.335518 0.942034 0
    outer loop
      vertex -2.7167 4.21145 9
      vertex -2.59949 4.25319 7
      vertex -2.7167 4.21145 7
    endloop
  endfacet
  facet normal -0.999879 -0.0155453 0
    outer loop
      vertex 0 8 7
      vertex -0.00193405 8.1244 9
      vertex -0.00193405 8.1244 7
    endloop
  endfacet
  facet normal -0.999879 -0.0155453 0
    outer loop
      vertex -0.00193405 8.1244 9
      vertex 0 8 7
      vertex 0 8 9
    endloop
  endfacet
  facet normal -0.701589 -0.712581 0
    outer loop
      vertex -1.23832 10.8936 7
      vertex -1.14966 10.8063 9
      vertex -1.23832 10.8936 9
    endloop
  endfacet
  facet normal -0.701589 -0.712581 -0
    outer loop
      vertex -1.14966 10.8063 9
      vertex -1.23832 10.8936 7
      vertex -1.14966 10.8063 7
    endloop
  endfacet
  facet normal -0.276302 -0.961071 0
    outer loop
      vertex -2.95471 11.861 7
      vertex -2.83514 11.8266 9
      vertex -2.95471 11.861 9
    endloop
  endfacet
  facet normal -0.276302 -0.961071 -0
    outer loop
      vertex -2.83514 11.8266 9
      vertex -2.95471 11.861 7
      vertex -2.83514 11.8266 7
    endloop
  endfacet
  facet normal -0.0621731 0.998065 0
    outer loop
      vertex -3.68926 4.01209 7
      vertex -3.81344 4.00435 9
      vertex -3.68926 4.01209 9
    endloop
  endfacet
  facet normal -0.0621731 0.998065 0
    outer loop
      vertex -3.81344 4.00435 9
      vertex -3.68926 4.01209 7
      vertex -3.81344 4.00435 7
    endloop
  endfacet
  facet normal -0.0310983 0.999516 0
    outer loop
      vertex -3.81344 4.00435 7
      vertex -3.93779 4.00048 9
      vertex -3.81344 4.00435 9
    endloop
  endfacet
  facet normal -0.0310983 0.999516 0
    outer loop
      vertex -3.93779 4.00048 9
      vertex -3.81344 4.00435 7
      vertex -3.93779 4.00048 7
    endloop
  endfacet
  facet normal -0.1549 0.98793 0
    outer loop
      vertex -3.31903 4.05839 7
      vertex -3.44194 4.03912 9
      vertex -3.31903 4.05839 9
    endloop
  endfacet
  facet normal -0.1549 0.98793 0
    outer loop
      vertex -3.44194 4.03912 9
      vertex -3.31903 4.05839 7
      vertex -3.44194 4.03912 7
    endloop
  endfacet
  facet normal -0.124102 0.99227 0
    outer loop
      vertex -3.44194 4.03912 7
      vertex -3.56539 4.02368 9
      vertex -3.44194 4.03912 9
    endloop
  endfacet
  facet normal -0.124102 0.99227 0
    outer loop
      vertex -3.56539 4.02368 9
      vertex -3.44194 4.03912 7
      vertex -3.56539 4.02368 7
    endloop
  endfacet
  facet normal -0.607735 0.79414 0
    outer loop
      vertex -1.51996 4.86162 7
      vertex -1.61876 4.78601 9
      vertex -1.51996 4.86162 9
    endloop
  endfacet
  facet normal -0.607735 0.79414 0
    outer loop
      vertex -1.61876 4.78601 9
      vertex -1.51996 4.86162 7
      vertex -1.61876 4.78601 7
    endloop
  endfacet
  facet normal -0.679085 0.73406 0
    outer loop
      vertex -1.23832 5.10636 7
      vertex -1.32965 5.02188 9
      vertex -1.23832 5.10636 9
    endloop
  endfacet
  facet normal -0.679085 0.73406 0
    outer loop
      vertex -1.32965 5.02188 9
      vertex -1.23832 5.10636 7
      vertex -1.32965 5.02188 7
    endloop
  endfacet
  facet normal -0.44983 0.893114 0
    outer loop
      vertex -2.14535 4.45595 7
      vertex -2.25646 4.39999 9
      vertex -2.14535 4.45595 9
    endloop
  endfacet
  facet normal -0.44983 0.893114 0
    outer loop
      vertex -2.25646 4.39999 9
      vertex -2.14535 4.45595 7
      vertex -2.25646 4.39999 7
    endloop
  endfacet
  facet normal -0.421839 0.906671 0
    outer loop
      vertex -2.25646 4.39999 7
      vertex -2.36926 4.34751 9
      vertex -2.25646 4.39999 9
    endloop
  endfacet
  facet normal -0.421839 0.906671 0
    outer loop
      vertex -2.36926 4.34751 9
      vertex -2.25646 4.39999 7
      vertex -2.36926 4.34751 7
    endloop
  endfacet
  facet normal -0.607735 -0.79414 0
    outer loop
      vertex -1.61876 11.214 7
      vertex -1.51996 11.1384 9
      vertex -1.61876 11.214 9
    endloop
  endfacet
  facet normal -0.607735 -0.79414 -0
    outer loop
      vertex -1.51996 11.1384 9
      vertex -1.61876 11.214 7
      vertex -1.51996 11.1384 7
    endloop
  endfacet
  facet normal -0.784596 -0.620007 0
    outer loop
      vertex -0.823433 10.4309 7
      vertex -0.900571 10.5285 9
      vertex -0.900571 10.5285 7
    endloop
  endfacet
  facet normal -0.784596 -0.620007 0
    outer loop
      vertex -0.900571 10.5285 9
      vertex -0.823433 10.4309 7
      vertex -0.823433 10.4309 9
    endloop
  endfacet
  facet normal -0.393436 -0.919352 0
    outer loop
      vertex -2.48365 11.7014 7
      vertex -2.36926 11.6525 9
      vertex -2.48365 11.7014 9
    endloop
  endfacet
  facet normal -0.393436 -0.919352 -0
    outer loop
      vertex -2.36926 11.6525 9
      vertex -2.48365 11.7014 7
      vertex -2.36926 11.6525 7
    endloop
  endfacet
  facet normal -0.1549 -0.98793 0
    outer loop
      vertex -3.44194 11.9609 7
      vertex -3.31903 11.9416 9
      vertex -3.44194 11.9609 9
    endloop
  endfacet
  facet normal -0.1549 -0.98793 -0
    outer loop
      vertex -3.31903 11.9416 9
      vertex -3.44194 11.9609 7
      vertex -3.31903 11.9416 7
    endloop
  endfacet
  facet normal -0.185547 0.982635 0
    outer loop
      vertex -3.19677 4.08148 7
      vertex -3.31903 4.05839 9
      vertex -3.19677 4.08148 9
    endloop
  endfacet
  facet normal -0.185547 0.982635 0
    outer loop
      vertex -3.31903 4.05839 9
      vertex -3.19677 4.08148 7
      vertex -3.31903 4.05839 7
    endloop
  endfacet
  facet normal -0.0931714 0.99565 0
    outer loop
      vertex -3.56539 4.02368 7
      vertex -3.68926 4.01209 9
      vertex -3.56539 4.02368 9
    endloop
  endfacet
  facet normal -0.0931714 0.99565 0
    outer loop
      vertex -3.68926 4.01209 9
      vertex -3.56539 4.02368 7
      vertex -3.68926 4.01209 7
    endloop
  endfacet
  facet normal -0.784596 0.620007 0
    outer loop
      vertex -0.900571 5.47145 7
      vertex -0.823433 5.56907 9
      vertex -0.823433 5.56907 7
    endloop
  endfacet
  facet normal -0.784596 0.620007 0
    outer loop
      vertex -0.823433 5.56907 9
      vertex -0.900571 5.47145 7
      vertex -0.900571 5.47145 9
    endloop
  endfacet
  facet normal -0.838952 0.544206 0
    outer loop
      vertex -0.678448 5.77126 7
      vertex -0.610741 5.87564 9
      vertex -0.610741 5.87564 7
    endloop
  endfacet
  facet normal -0.838952 0.544206 0
    outer loop
      vertex -0.610741 5.87564 9
      vertex -0.678448 5.77126 7
      vertex -0.678448 5.77126 9
    endloop
  endfacet
  facet normal -0.393436 0.919352 0
    outer loop
      vertex -2.36926 4.34751 7
      vertex -2.48365 4.29856 9
      vertex -2.36926 4.34751 9
    endloop
  endfacet
  facet normal -0.393436 0.919352 0
    outer loop
      vertex -2.48365 4.29856 9
      vertex -2.36926 4.34751 7
      vertex -2.48365 4.29856 7
    endloop
  endfacet
  facet normal -0.306062 0.952012 0
    outer loop
      vertex -2.7167 4.21145 7
      vertex -2.83514 4.17337 9
      vertex -2.7167 4.21145 9
    endloop
  endfacet
  facet normal -0.306062 0.952012 0
    outer loop
      vertex -2.83514 4.17337 9
      vertex -2.7167 4.21145 7
      vertex -2.83514 4.17337 7
    endloop
  endfacet
  facet normal -0.276302 0.961071 0
    outer loop
      vertex -2.83514 4.17337 7
      vertex -2.95471 4.13899 9
      vertex -2.83514 4.17337 9
    endloop
  endfacet
  facet normal -0.276302 0.961071 0
    outer loop
      vertex -2.95471 4.13899 9
      vertex -2.83514 4.17337 7
      vertex -2.95471 4.13899 7
    endloop
  endfacet
  facet normal -0.994079 -0.108656 0
    outer loop
      vertex -0.0174017 8.37272 7
      vertex -0.03092 8.49639 9
      vertex -0.03092 8.49639 7
    endloop
  endfacet
  facet normal -0.994079 -0.108656 0
    outer loop
      vertex -0.03092 8.49639 9
      vertex -0.0174017 8.37272 7
      vertex -0.0174017 8.37272 9
    endloop
  endfacet
  facet normal -0.531091 -0.847315 0
    outer loop
      vertex -1.9286 11.4219 7
      vertex -1.82318 11.3558 9
      vertex -1.9286 11.4219 9
    endloop
  endfacet
  facet normal -0.531091 -0.847315 -0
    outer loop
      vertex -1.82318 11.3558 9
      vertex -1.9286 11.4219 7
      vertex -1.82318 11.3558 7
    endloop
  endfacet
  facet normal -0.557188 -0.830386 0
    outer loop
      vertex -1.82318 11.3558 7
      vertex -1.71987 11.2865 9
      vertex -1.82318 11.3558 9
    endloop
  endfacet
  facet normal -0.557188 -0.830386 -0
    outer loop
      vertex -1.71987 11.2865 9
      vertex -1.82318 11.3558 7
      vertex -1.71987 11.2865 7
    endloop
  endfacet
  facet normal -0.582739 -0.812659 0
    outer loop
      vertex -1.71987 11.2865 7
      vertex -1.61876 11.214 9
      vertex -1.71987 11.2865 9
    endloop
  endfacet
  facet normal -0.582739 -0.812659 -0
    outer loop
      vertex -1.61876 11.214 9
      vertex -1.71987 11.2865 7
      vertex -1.61876 11.214 7
    endloop
  endfacet
  facet normal -0.655927 -0.754824 0
    outer loop
      vertex -1.42356 11.0597 7
      vertex -1.32965 10.9781 9
      vertex -1.42356 11.0597 9
    endloop
  endfacet
  facet normal -0.655927 -0.754824 -0
    outer loop
      vertex -1.32965 10.9781 9
      vertex -1.42356 11.0597 7
      vertex -1.32965 10.9781 7
    endloop
  endfacet
  facet normal -0.679085 -0.73406 0
    outer loop
      vertex -1.32965 10.9781 7
      vertex -1.23832 10.8936 9
      vertex -1.32965 10.9781 9
    endloop
  endfacet
  facet normal -0.679085 -0.73406 -0
    outer loop
      vertex -1.23832 10.8936 9
      vertex -1.32965 10.9781 7
      vertex -1.23832 10.8936 7
    endloop
  endfacet
  facet normal -0.632136 -0.774857 0
    outer loop
      vertex -1.51996 11.1384 7
      vertex -1.42356 11.0597 9
      vertex -1.51996 11.1384 9
    endloop
  endfacet
  facet normal -0.632136 -0.774857 -0
    outer loop
      vertex -1.42356 11.0597 9
      vertex -1.51996 11.1384 7
      vertex -1.42356 11.0597 7
    endloop
  endfacet
  facet normal -0.72341 -0.690419 0
    outer loop
      vertex -1.06377 10.7163 7
      vertex -1.14966 10.8063 9
      vertex -1.14966 10.8063 7
    endloop
  endfacet
  facet normal -0.72341 -0.690419 0
    outer loop
      vertex -1.14966 10.8063 9
      vertex -1.06377 10.7163 7
      vertex -1.06377 10.7163 9
    endloop
  endfacet
  facet normal -0.744532 -0.667587 0
    outer loop
      vertex -0.980708 10.6237 7
      vertex -1.06377 10.7163 9
      vertex -1.06377 10.7163 7
    endloop
  endfacet
  facet normal -0.744532 -0.667587 0
    outer loop
      vertex -1.06377 10.7163 9
      vertex -0.980708 10.6237 7
      vertex -0.980708 10.6237 9
    endloop
  endfacet
  facet normal -0.764928 -0.644115 0
    outer loop
      vertex -0.900571 10.5285 7
      vertex -0.980708 10.6237 9
      vertex -0.980708 10.6237 7
    endloop
  endfacet
  facet normal -0.764928 -0.644115 0
    outer loop
      vertex -0.980708 10.6237 9
      vertex -0.900571 10.5285 7
      vertex -0.900571 10.5285 9
    endloop
  endfacet
  facet normal -0.803495 -0.595312 0
    outer loop
      vertex -0.749368 10.331 7
      vertex -0.823433 10.4309 9
      vertex -0.823433 10.4309 7
    endloop
  endfacet
  facet normal -0.803495 -0.595312 0
    outer loop
      vertex -0.823433 10.4309 9
      vertex -0.749368 10.331 7
      vertex -0.749368 10.331 9
    endloop
  endfacet
  facet normal -0.821625 -0.570028 0
    outer loop
      vertex -0.678448 10.2287 7
      vertex -0.749368 10.331 9
      vertex -0.749368 10.331 7
    endloop
  endfacet
  facet normal -0.821625 -0.570028 0
    outer loop
      vertex -0.749368 10.331 9
      vertex -0.678448 10.2287 7
      vertex -0.678448 10.2287 9
    endloop
  endfacet
  facet normal -0.85547 -0.517852 0
    outer loop
      vertex -0.546312 10.0179 7
      vertex -0.610741 10.1244 9
      vertex -0.610741 10.1244 7
    endloop
  endfacet
  facet normal -0.85547 -0.517852 0
    outer loop
      vertex -0.610741 10.1244 9
      vertex -0.546312 10.0179 7
      vertex -0.546312 10.0179 9
    endloop
  endfacet
  facet normal -0.306062 -0.952012 0
    outer loop
      vertex -2.83514 11.8266 7
      vertex -2.7167 11.7886 9
      vertex -2.83514 11.8266 9
    endloop
  endfacet
  facet normal -0.306062 -0.952012 -0
    outer loop
      vertex -2.7167 11.7886 9
      vertex -2.83514 11.8266 7
      vertex -2.7167 11.7886 7
    endloop
  endfacet
  facet normal -0.335518 -0.942034 0
    outer loop
      vertex -2.7167 11.7886 7
      vertex -2.59949 11.7468 9
      vertex -2.7167 11.7886 9
    endloop
  endfacet
  facet normal -0.335518 -0.942034 -0
    outer loop
      vertex -2.59949 11.7468 9
      vertex -2.7167 11.7886 7
      vertex -2.59949 11.7468 7
    endloop
  endfacet
  facet normal -0.364645 -0.931147 0
    outer loop
      vertex -2.59949 11.7468 7
      vertex -2.48365 11.7014 9
      vertex -2.59949 11.7468 9
    endloop
  endfacet
  facet normal -0.364645 -0.931147 -0
    outer loop
      vertex -2.48365 11.7014 9
      vertex -2.59949 11.7468 7
      vertex -2.48365 11.7014 7
    endloop
  endfacet
  facet normal -0.421839 -0.906671 0
    outer loop
      vertex -2.36926 11.6525 7
      vertex -2.25646 11.6 9
      vertex -2.36926 11.6525 9
    endloop
  endfacet
  facet normal -0.421839 -0.906671 -0
    outer loop
      vertex -2.25646 11.6 9
      vertex -2.36926 11.6525 7
      vertex -2.25646 11.6 7
    endloop
  endfacet
  facet normal -0.44983 -0.893114 0
    outer loop
      vertex -2.25646 11.6 7
      vertex -2.14535 11.544 9
      vertex -2.25646 11.6 9
    endloop
  endfacet
  facet normal -0.44983 -0.893114 -0
    outer loop
      vertex -2.14535 11.544 9
      vertex -2.25646 11.6 7
      vertex -2.14535 11.544 7
    endloop
  endfacet
  facet normal -0.47738 -0.878697 0
    outer loop
      vertex -2.14535 11.544 7
      vertex -2.03602 11.4847 9
      vertex -2.14535 11.544 9
    endloop
  endfacet
  facet normal -0.47738 -0.878697 -0
    outer loop
      vertex -2.03602 11.4847 9
      vertex -2.14535 11.544 7
      vertex -2.03602 11.4847 7
    endloop
  endfacet
  facet normal -0.185547 -0.982635 0
    outer loop
      vertex -3.31903 11.9416 7
      vertex -3.19677 11.9185 9
      vertex -3.31903 11.9416 9
    endloop
  endfacet
  facet normal -0.185547 -0.982635 -0
    outer loop
      vertex -3.19677 11.9185 9
      vertex -3.31903 11.9416 7
      vertex -3.19677 11.9185 7
    endloop
  endfacet
  facet normal -0.216016 -0.97639 0
    outer loop
      vertex -3.19677 11.9185 7
      vertex -3.07529 11.8916 9
      vertex -3.19677 11.9185 9
    endloop
  endfacet
  facet normal -0.216016 -0.97639 -0
    outer loop
      vertex -3.07529 11.8916 9
      vertex -3.19677 11.9185 7
      vertex -3.07529 11.8916 7
    endloop
  endfacet
  facet normal -0.246278 -0.969199 0
    outer loop
      vertex -3.07529 11.8916 7
      vertex -2.95471 11.861 9
      vertex -3.07529 11.8916 9
    endloop
  endfacet
  facet normal -0.246278 -0.969199 -0
    outer loop
      vertex -2.95471 11.861 9
      vertex -3.07529 11.8916 7
      vertex -2.95471 11.861 7
    endloop
  endfacet
  facet normal -0.0931714 -0.99565 0
    outer loop
      vertex -3.68926 11.9879 7
      vertex -3.56539 11.9763 9
      vertex -3.68926 11.9879 9
    endloop
  endfacet
  facet normal -0.0931714 -0.99565 -0
    outer loop
      vertex -3.56539 11.9763 9
      vertex -3.68926 11.9879 7
      vertex -3.56539 11.9763 7
    endloop
  endfacet
  facet normal -0.124102 -0.99227 0
    outer loop
      vertex -3.56539 11.9763 7
      vertex -3.44194 11.9609 9
      vertex -3.56539 11.9763 9
    endloop
  endfacet
  facet normal -0.124102 -0.99227 -0
    outer loop
      vertex -3.44194 11.9609 9
      vertex -3.56539 11.9763 7
      vertex -3.44194 11.9609 7
    endloop
  endfacet
  facet normal -0.0621731 -0.998065 0
    outer loop
      vertex -3.81344 11.9956 7
      vertex -3.68926 11.9879 9
      vertex -3.81344 11.9956 9
    endloop
  endfacet
  facet normal -0.0621731 -0.998065 -0
    outer loop
      vertex -3.68926 11.9879 9
      vertex -3.81344 11.9956 7
      vertex -3.68926 11.9879 7
    endloop
  endfacet
  facet normal -0.00778759 -0.99997 0
    outer loop
      vertex -4 12 7
      vertex -3.93779 11.9995 9
      vertex -4 12 9
    endloop
  endfacet
  facet normal -0.00778759 -0.99997 -0
    outer loop
      vertex -3.93779 11.9995 9
      vertex -4 12 7
      vertex -3.93779 11.9995 7
    endloop
  endfacet
  facet normal -0.47738 0.878697 0
    outer loop
      vertex -2.03602 4.51535 7
      vertex -2.14535 4.45595 9
      vertex -2.03602 4.51535 9
    endloop
  endfacet
  facet normal -0.47738 0.878697 0
    outer loop
      vertex -2.14535 4.45595 9
      vertex -2.03602 4.51535 7
      vertex -2.14535 4.45595 7
    endloop
  endfacet
  facet normal -0.582739 0.812659 0
    outer loop
      vertex -1.61876 4.78601 7
      vertex -1.71987 4.71351 9
      vertex -1.61876 4.78601 9
    endloop
  endfacet
  facet normal -0.582739 0.812659 0
    outer loop
      vertex -1.71987 4.71351 9
      vertex -1.61876 4.78601 7
      vertex -1.71987 4.71351 7
    endloop
  endfacet
  facet normal -0.504485 0.863421 0
    outer loop
      vertex -1.9286 4.57811 7
      vertex -2.03602 4.51535 9
      vertex -1.9286 4.57811 9
    endloop
  endfacet
  facet normal -0.504485 0.863421 0
    outer loop
      vertex -2.03602 4.51535 9
      vertex -1.9286 4.57811 7
      vertex -2.03602 4.51535 7
    endloop
  endfacet
  facet normal -0.764928 0.644115 0
    outer loop
      vertex -0.980708 5.37629 7
      vertex -0.900571 5.47145 9
      vertex -0.900571 5.47145 7
    endloop
  endfacet
  facet normal -0.764928 0.644115 0
    outer loop
      vertex -0.900571 5.47145 9
      vertex -0.980708 5.37629 7
      vertex -0.980708 5.37629 9
    endloop
  endfacet
  facet normal -0.701589 0.712581 0
    outer loop
      vertex -1.14966 5.19365 7
      vertex -1.23832 5.10636 9
      vertex -1.14966 5.19365 9
    endloop
  endfacet
  facet normal -0.701589 0.712581 0
    outer loop
      vertex -1.23832 5.10636 9
      vertex -1.14966 5.19365 7
      vertex -1.23832 5.10636 7
    endloop
  endfacet
  facet normal -0.85547 0.517852 0
    outer loop
      vertex -0.610741 5.87564 7
      vertex -0.546312 5.98207 9
      vertex -0.546312 5.98207 7
    endloop
  endfacet
  facet normal -0.85547 0.517852 0
    outer loop
      vertex -0.546312 5.98207 9
      vertex -0.610741 5.87564 7
      vertex -0.610741 5.87564 9
    endloop
  endfacet
  facet normal -0.803495 0.595312 0
    outer loop
      vertex -0.823433 5.56907 7
      vertex -0.749368 5.66903 9
      vertex -0.749368 5.66903 7
    endloop
  endfacet
  facet normal -0.803495 0.595312 0
    outer loop
      vertex -0.749368 5.66903 9
      vertex -0.823433 5.56907 7
      vertex -0.823433 5.56907 9
    endloop
  endfacet
  facet normal -0.821625 0.570028 0
    outer loop
      vertex -0.749368 5.66903 7
      vertex -0.678448 5.77126 9
      vertex -0.678448 5.77126 7
    endloop
  endfacet
  facet normal -0.821625 0.570028 0
    outer loop
      vertex -0.678448 5.77126 9
      vertex -0.749368 5.66903 7
      vertex -0.749368 5.66903 9
    endloop
  endfacet
  facet normal -0.925361 -0.379087 0
    outer loop
      vertex -0.275423 9.45861 7
      vertex -0.322587 9.57373 9
      vertex -0.322587 9.57373 7
    endloop
  endfacet
  facet normal -0.925361 -0.379087 0
    outer loop
      vertex -0.322587 9.57373 9
      vertex -0.275423 9.45861 7
      vertex -0.275423 9.45861 9
    endloop
  endfacet
  facet normal -0.871163 -0.490994 0
    outer loop
      vertex -0.485226 9.90955 7
      vertex -0.546312 10.0179 9
      vertex -0.546312 10.0179 7
    endloop
  endfacet
  facet normal -0.871163 -0.490994 0
    outer loop
      vertex -0.546312 10.0179 9
      vertex -0.485226 9.90955 7
      vertex -0.485226 9.90955 9
    endloop
  endfacet
  facet normal -0.838952 -0.544206 0
    outer loop
      vertex -0.610741 10.1244 7
      vertex -0.678448 10.2287 9
      vertex -0.678448 10.2287 7
    endloop
  endfacet
  facet normal -0.838952 -0.544206 0
    outer loop
      vertex -0.678448 10.2287 9
      vertex -0.610741 10.1244 7
      vertex -0.610741 10.1244 9
    endloop
  endfacet
  facet normal -0.0310983 -0.999516 0
    outer loop
      vertex -3.93779 11.9995 7
      vertex -3.81344 11.9956 9
      vertex -3.93779 11.9995 9
    endloop
  endfacet
  facet normal -0.0310983 -0.999516 -0
    outer loop
      vertex -3.81344 11.9956 9
      vertex -3.93779 11.9995 7
      vertex -3.81344 11.9956 7
    endloop
  endfacet
  facet normal -0.925361 0.379087 0
    outer loop
      vertex -0.322587 6.42626 7
      vertex -0.275423 6.54139 9
      vertex -0.275423 6.54139 7
    endloop
  endfacet
  facet normal -0.925361 0.379087 0
    outer loop
      vertex -0.275423 6.54139 9
      vertex -0.322587 6.42626 7
      vertex -0.322587 6.42626 9
    endloop
  endfacet
  facet normal -0.913122 0.407687 0
    outer loop
      vertex -0.373309 6.31266 7
      vertex -0.322587 6.42626 9
      vertex -0.322587 6.42626 7
    endloop
  endfacet
  facet normal -0.913122 0.407687 0
    outer loop
      vertex -0.322587 6.42626 9
      vertex -0.373309 6.31266 7
      vertex -0.373309 6.31266 9
    endloop
  endfacet
  facet normal -0.900001 0.435888 0
    outer loop
      vertex -0.42754 6.20069 7
      vertex -0.373309 6.31266 9
      vertex -0.373309 6.31266 7
    endloop
  endfacet
  facet normal -0.900001 0.435888 0
    outer loop
      vertex -0.373309 6.31266 9
      vertex -0.42754 6.20069 7
      vertex -0.42754 6.20069 9
    endloop
  endfacet
  facet normal -0.886015 0.463658 0
    outer loop
      vertex -0.485226 6.09045 7
      vertex -0.42754 6.20069 9
      vertex -0.42754 6.20069 7
    endloop
  endfacet
  facet normal -0.886015 0.463658 0
    outer loop
      vertex -0.42754 6.20069 9
      vertex -0.485226 6.09045 7
      vertex -0.485226 6.09045 9
    endloop
  endfacet
  facet normal -0.557188 0.830386 0
    outer loop
      vertex -1.71987 4.71351 7
      vertex -1.82318 4.64419 9
      vertex -1.71987 4.71351 9
    endloop
  endfacet
  facet normal -0.557188 0.830386 0
    outer loop
      vertex -1.82318 4.64419 9
      vertex -1.71987 4.71351 7
      vertex -1.82318 4.64419 7
    endloop
  endfacet
  facet normal -0.531091 0.847315 0
    outer loop
      vertex -1.82318 4.64419 7
      vertex -1.9286 4.57811 9
      vertex -1.82318 4.64419 9
    endloop
  endfacet
  facet normal -0.531091 0.847315 0
    outer loop
      vertex -1.9286 4.57811 9
      vertex -1.82318 4.64419 7
      vertex -1.9286 4.57811 7
    endloop
  endfacet
  facet normal -0.72341 0.690419 0
    outer loop
      vertex -1.14966 5.19365 7
      vertex -1.06377 5.28366 9
      vertex -1.06377 5.28366 7
    endloop
  endfacet
  facet normal -0.72341 0.690419 0
    outer loop
      vertex -1.06377 5.28366 9
      vertex -1.14966 5.19365 7
      vertex -1.14966 5.19365 9
    endloop
  endfacet
  facet normal -0.655927 0.754824 0
    outer loop
      vertex -1.32965 5.02188 7
      vertex -1.42356 4.94027 9
      vertex -1.32965 5.02188 9
    endloop
  endfacet
  facet normal -0.655927 0.754824 0
    outer loop
      vertex -1.42356 4.94027 9
      vertex -1.32965 5.02188 7
      vertex -1.42356 4.94027 7
    endloop
  endfacet
  facet normal -0.632136 0.774857 0
    outer loop
      vertex -1.42356 4.94027 7
      vertex -1.51996 4.86162 9
      vertex -1.42356 4.94027 9
    endloop
  endfacet
  facet normal -0.632136 0.774857 0
    outer loop
      vertex -1.51996 4.86162 9
      vertex -1.42356 4.94027 7
      vertex -1.51996 4.86162 7
    endloop
  endfacet
  facet normal -0.936703 -0.350126 0
    outer loop
      vertex -0.231862 9.34207 7
      vertex -0.275423 9.45861 9
      vertex -0.275423 9.45861 7
    endloop
  endfacet
  facet normal -0.936703 -0.350126 0
    outer loop
      vertex -0.275423 9.45861 9
      vertex -0.231862 9.34207 7
      vertex -0.231862 9.34207 9
    endloop
  endfacet
  facet normal -0.947138 -0.320826 0
    outer loop
      vertex -0.191947 9.22423 7
      vertex -0.231862 9.34207 9
      vertex -0.231862 9.34207 7
    endloop
  endfacet
  facet normal -0.947138 -0.320826 0
    outer loop
      vertex -0.231862 9.34207 9
      vertex -0.191947 9.22423 7
      vertex -0.191947 9.22423 9
    endloop
  endfacet
  facet normal -0.956659 -0.291212 0
    outer loop
      vertex -0.155716 9.10521 7
      vertex -0.191947 9.22423 9
      vertex -0.191947 9.22423 7
    endloop
  endfacet
  facet normal -0.956659 -0.291212 0
    outer loop
      vertex -0.191947 9.22423 9
      vertex -0.155716 9.10521 7
      vertex -0.155716 9.10521 9
    endloop
  endfacet
  facet normal -0.900001 -0.435888 0
    outer loop
      vertex -0.373309 9.68734 7
      vertex -0.42754 9.79931 9
      vertex -0.42754 9.79931 7
    endloop
  endfacet
  facet normal -0.900001 -0.435888 0
    outer loop
      vertex -0.42754 9.79931 9
      vertex -0.373309 9.68734 7
      vertex -0.373309 9.68734 9
    endloop
  endfacet
  facet normal -0.913122 -0.407687 0
    outer loop
      vertex -0.322587 9.57373 7
      vertex -0.373309 9.68734 9
      vertex -0.373309 9.68734 7
    endloop
  endfacet
  facet normal -0.913122 -0.407687 0
    outer loop
      vertex -0.373309 9.68734 9
      vertex -0.322587 9.57373 7
      vertex -0.322587 9.57373 9
    endloop
  endfacet
  facet normal -0.886015 -0.463658 0
    outer loop
      vertex -0.42754 9.79931 7
      vertex -0.485226 9.90955 9
      vertex -0.485226 9.90955 7
    endloop
  endfacet
  facet normal -0.886015 -0.463658 0
    outer loop
      vertex -0.485226 9.90955 9
      vertex -0.42754 9.79931 7
      vertex -0.42754 9.79931 9
    endloop
  endfacet
  facet normal -0.947138 0.320826 0
    outer loop
      vertex -0.231862 6.65793 7
      vertex -0.191947 6.77577 9
      vertex -0.191947 6.77577 7
    endloop
  endfacet
  facet normal -0.947138 0.320826 0
    outer loop
      vertex -0.191947 6.77577 9
      vertex -0.231862 6.65793 7
      vertex -0.231862 6.65793 9
    endloop
  endfacet
  facet normal -0.936703 0.350126 0
    outer loop
      vertex -0.275423 6.54139 7
      vertex -0.231862 6.65793 9
      vertex -0.231862 6.65793 7
    endloop
  endfacet
  facet normal -0.936703 0.350126 0
    outer loop
      vertex -0.231862 6.65793 9
      vertex -0.275423 6.54139 7
      vertex -0.275423 6.54139 9
    endloop
  endfacet
  facet normal -0.956659 0.291212 0
    outer loop
      vertex -0.191947 6.77577 7
      vertex -0.155716 6.89479 9
      vertex -0.155716 6.89479 7
    endloop
  endfacet
  facet normal -0.956659 0.291212 0
    outer loop
      vertex -0.155716 6.89479 9
      vertex -0.191947 6.77577 7
      vertex -0.191947 6.77577 9
    endloop
  endfacet
  facet normal -0.965251 0.261325 0
    outer loop
      vertex -0.155716 6.89479 7
      vertex -0.123203 7.01488 9
      vertex -0.123203 7.01488 7
    endloop
  endfacet
  facet normal -0.965251 0.261325 0
    outer loop
      vertex -0.123203 7.01488 9
      vertex -0.155716 6.89479 7
      vertex -0.155716 6.89479 9
    endloop
  endfacet
  facet normal -0.972911 0.231178 0
    outer loop
      vertex -0.123203 7.01488 7
      vertex -0.0944414 7.13593 9
      vertex -0.0944414 7.13593 7
    endloop
  endfacet
  facet normal -0.972911 0.231178 0
    outer loop
      vertex -0.0944414 7.13593 9
      vertex -0.123203 7.01488 7
      vertex -0.123203 7.01488 9
    endloop
  endfacet
  facet normal -0.99022 0.139515 0
    outer loop
      vertex -0.0482779 7.38041 7
      vertex -0.03092 7.5036 9
      vertex -0.03092 7.5036 7
    endloop
  endfacet
  facet normal -0.99022 0.139515 0
    outer loop
      vertex -0.03092 7.5036 9
      vertex -0.0482779 7.38041 7
      vertex -0.0482779 7.38041 9
    endloop
  endfacet
  facet normal -0.999879 0.0155451 0
    outer loop
      vertex -0.00193405 7.8756 7
      vertex 0 8 9
      vertex 0 8 7
    endloop
  endfacet
  facet normal -0.999879 0.0155451 0
    outer loop
      vertex 0 8 9
      vertex -0.00193405 7.8756 7
      vertex -0.00193405 7.8756 9
    endloop
  endfacet
  facet normal -0.972911 -0.231178 0
    outer loop
      vertex -0.0944414 8.86407 7
      vertex -0.123203 8.98512 9
      vertex -0.123203 8.98512 7
    endloop
  endfacet
  facet normal -0.972911 -0.231178 0
    outer loop
      vertex -0.123203 8.98512 9
      vertex -0.0944414 8.86407 7
      vertex -0.0944414 8.86407 9
    endloop
  endfacet
  facet normal -0.965251 -0.261325 0
    outer loop
      vertex -0.123203 8.98512 7
      vertex -0.155716 9.10521 9
      vertex -0.155716 9.10521 7
    endloop
  endfacet
  facet normal -0.965251 -0.261325 0
    outer loop
      vertex -0.155716 9.10521 9
      vertex -0.123203 8.98512 7
      vertex -0.123203 8.98512 9
    endloop
  endfacet
  facet normal -0.99022 -0.139515 0
    outer loop
      vertex -0.03092 8.49639 7
      vertex -0.0482779 8.61959 9
      vertex -0.0482779 8.61959 7
    endloop
  endfacet
  facet normal -0.99022 -0.139515 0
    outer loop
      vertex -0.0482779 8.61959 9
      vertex -0.03092 8.49639 7
      vertex -0.03092 8.49639 9
    endloop
  endfacet
  facet normal -0.996978 -0.0776801 0
    outer loop
      vertex -0.00773716 8.24868 7
      vertex -0.0174017 8.37272 9
      vertex -0.0174017 8.37272 7
    endloop
  endfacet
  facet normal -0.996978 -0.0776801 0
    outer loop
      vertex -0.0174017 8.37272 9
      vertex -0.00773716 8.24868 7
      vertex -0.00773716 8.24868 9
    endloop
  endfacet
  facet normal -0.998912 -0.0466434 0
    outer loop
      vertex -0.00193405 8.1244 7
      vertex -0.00773716 8.24868 9
      vertex -0.00773716 8.24868 7
    endloop
  endfacet
  facet normal -0.998912 -0.0466434 0
    outer loop
      vertex -0.00773716 8.24868 9
      vertex -0.00193405 8.1244 7
      vertex -0.00193405 8.1244 9
    endloop
  endfacet
  facet normal -0.994079 0.108656 0
    outer loop
      vertex -0.03092 7.5036 7
      vertex -0.0174017 7.62728 9
      vertex -0.0174017 7.62728 7
    endloop
  endfacet
  facet normal -0.994079 0.108656 0
    outer loop
      vertex -0.0174017 7.62728 9
      vertex -0.03092 7.5036 7
      vertex -0.03092 7.5036 9
    endloop
  endfacet
  facet normal -0.985401 0.170247 0
    outer loop
      vertex -0.069459 7.25781 7
      vertex -0.0482779 7.38041 9
      vertex -0.0482779 7.38041 7
    endloop
  endfacet
  facet normal -0.985401 0.170247 0
    outer loop
      vertex -0.0482779 7.38041 9
      vertex -0.069459 7.25781 7
      vertex -0.069459 7.25781 9
    endloop
  endfacet
  facet normal -0.979632 0.2008 0
    outer loop
      vertex -0.0944414 7.13593 7
      vertex -0.069459 7.25781 9
      vertex -0.069459 7.25781 7
    endloop
  endfacet
  facet normal -0.979632 0.2008 0
    outer loop
      vertex -0.069459 7.25781 9
      vertex -0.0944414 7.13593 7
      vertex -0.0944414 7.13593 9
    endloop
  endfacet
  facet normal -0.996978 0.0776801 0
    outer loop
      vertex -0.0174017 7.62728 7
      vertex -0.00773716 7.75132 9
      vertex -0.00773716 7.75132 7
    endloop
  endfacet
  facet normal -0.996978 0.0776801 0
    outer loop
      vertex -0.00773716 7.75132 9
      vertex -0.0174017 7.62728 7
      vertex -0.0174017 7.62728 9
    endloop
  endfacet
  facet normal -0.998912 0.0466434 0
    outer loop
      vertex -0.00773716 7.75132 7
      vertex -0.00193405 7.8756 9
      vertex -0.00193405 7.8756 7
    endloop
  endfacet
  facet normal -0.998912 0.0466434 0
    outer loop
      vertex -0.00193405 7.8756 9
      vertex -0.00773716 7.75132 7
      vertex -0.00773716 7.75132 9
    endloop
  endfacet
  facet normal -0.979632 -0.2008 0
    outer loop
      vertex -0.069459 8.74219 7
      vertex -0.0944414 8.86407 9
      vertex -0.0944414 8.86407 7
    endloop
  endfacet
  facet normal -0.979632 -0.2008 0
    outer loop
      vertex -0.0944414 8.86407 9
      vertex -0.069459 8.74219 7
      vertex -0.069459 8.74219 9
    endloop
  endfacet
  facet normal -0.985401 -0.170247 0
    outer loop
      vertex -0.0482779 8.61959 7
      vertex -0.069459 8.74219 9
      vertex -0.069459 8.74219 7
    endloop
  endfacet
  facet normal -0.985401 -0.170247 0
    outer loop
      vertex -0.069459 8.74219 9
      vertex -0.0482779 8.61959 7
      vertex -0.0482779 8.61959 9
    endloop
  endfacet
endsolid OpenSCAD_Model
