solid OpenSCAD_Model
  facet normal 0 0 1
    outer loop
      vertex 96.375 73.5 -86
      vertex 87.375 64.5 -86
      vertex 96.375 11.4 -86
    endloop
  endfacet
  facet normal 0 0 1
    outer loop
      vertex 96.375 73.5 -86
      vertex 24.225 64.5 -86
      vertex 87.375 64.5 -86
    endloop
  endfacet
  facet normal 0 0 1
    outer loop
      vertex 24.225 64.5 -86
      vertex 15.225 73.5 -86
      vertex 24.225 20.4 -86
    endloop
  endfacet
  facet normal -0 0 1
    outer loop
      vertex 15.225 73.5 -86
      vertex 24.225 64.5 -86
      vertex 96.375 73.5 -86
    endloop
  endfacet
  facet normal -0 0 1
    outer loop
      vertex 87.375 20.4 -86
      vertex 96.375 11.4 -86
      vertex 87.375 64.5 -86
    endloop
  endfacet
  facet normal -0 0 1
    outer loop
      vertex 24.225 20.4 -86
      vertex 96.375 11.4 -86
      vertex 87.375 20.4 -86
    endloop
  endfacet
  facet normal 0 0 1
    outer loop
      vertex 24.225 20.4 -86
      vertex 15.225 11.4 -86
      vertex 96.375 11.4 -86
    endloop
  endfacet
  facet normal 0 0 1
    outer loop
      vertex 15.225 11.4 -86
      vertex 24.225 20.4 -86
      vertex 15.225 73.5 -86
    endloop
  endfacet
  facet normal 0 0 -1
    outer loop
      vertex 20.225 16.4 -91
      vertex 91.375 68.5 -91
      vertex 91.375 16.4 -91
    endloop
  endfacet
  facet normal -0 0 -1
    outer loop
      vertex 91.375 68.5 -91
      vertex 20.225 16.4 -91
      vertex 20.225 68.5 -91
    endloop
  endfacet
  facet normal 0.624695 0 -0.780869
    outer loop
      vertex 91.375 16.4 -91
      vertex 96.375 73.5 -87
      vertex 96.375 11.4 -87
    endloop
  endfacet
  facet normal 0.624695 0 -0.780869
    outer loop
      vertex 96.375 73.5 -87
      vertex 91.375 16.4 -91
      vertex 91.375 68.5 -91
    endloop
  endfacet
  facet normal 1 -0 0
    outer loop
      vertex 96.375 11.4 -86
      vertex 96.375 73.5 -87
      vertex 96.375 73.5 -86
    endloop
  endfacet
  facet normal 1 0 0
    outer loop
      vertex 96.375 73.5 -87
      vertex 96.375 11.4 -86
      vertex 96.375 11.4 -87
    endloop
  endfacet
  facet normal -0.624695 0 -0.780869
    outer loop
      vertex 15.225 11.4 -87
      vertex 20.225 68.5 -91
      vertex 20.225 16.4 -91
    endloop
  endfacet
  facet normal -0.624695 0 -0.780869
    outer loop
      vertex 20.225 68.5 -91
      vertex 15.225 11.4 -87
      vertex 15.225 73.5 -87
    endloop
  endfacet
  facet normal -1 0 0
    outer loop
      vertex 15.225 11.4 -87
      vertex 15.225 73.5 -86
      vertex 15.225 73.5 -87
    endloop
  endfacet
  facet normal -1 -0 0
    outer loop
      vertex 15.225 73.5 -86
      vertex 15.225 11.4 -87
      vertex 15.225 11.4 -86
    endloop
  endfacet
  facet normal 0 -0.624695 -0.780869
    outer loop
      vertex 96.375 11.4 -87
      vertex 20.225 16.4 -91
      vertex 91.375 16.4 -91
    endloop
  endfacet
  facet normal 0 -0.624695 -0.780869
    outer loop
      vertex 20.225 16.4 -91
      vertex 96.375 11.4 -87
      vertex 15.225 11.4 -87
    endloop
  endfacet
  facet normal 0 -1 0
    outer loop
      vertex 15.225 11.4 -87
      vertex 96.375 11.4 -86
      vertex 15.225 11.4 -86
    endloop
  endfacet
  facet normal 0 -1 -0
    outer loop
      vertex 96.375 11.4 -86
      vertex 15.225 11.4 -87
      vertex 96.375 11.4 -87
    endloop
  endfacet
  facet normal 0 1 -0
    outer loop
      vertex 96.375 73.5 -87
      vertex 15.225 73.5 -86
      vertex 96.375 73.5 -86
    endloop
  endfacet
  facet normal 0 1 0
    outer loop
      vertex 15.225 73.5 -86
      vertex 96.375 73.5 -87
      vertex 15.225 73.5 -87
    endloop
  endfacet
  facet normal 0 0.624695 -0.780869
    outer loop
      vertex 20.225 68.5 -91
      vertex 96.375 73.5 -87
      vertex 91.375 68.5 -91
    endloop
  endfacet
  facet normal 0 0.624695 -0.780869
    outer loop
      vertex 96.375 73.5 -87
      vertex 20.225 68.5 -91
      vertex 15.225 73.5 -87
    endloop
  endfacet
  facet normal -1 0 0
    outer loop
      vertex 24.225 20.4 -86
      vertex 24.225 64.5 -60.6
      vertex 24.225 64.5 -86
    endloop
  endfacet
  facet normal -1 -0 0
    outer loop
      vertex 24.225 64.5 -60.6
      vertex 24.225 20.4 -86
      vertex 24.225 20.4 -60.6
    endloop
  endfacet
  facet normal 0 0 1
    outer loop
      vertex 87.375 64.5 -60.6
      vertex 84.375 61.5 -60.6
      vertex 87.375 20.4 -60.6
    endloop
  endfacet
  facet normal 0 0 1
    outer loop
      vertex 87.375 64.5 -60.6
      vertex 27.225 61.5 -60.6
      vertex 84.375 61.5 -60.6
    endloop
  endfacet
  facet normal 0 0 1
    outer loop
      vertex 27.225 61.5 -60.6
      vertex 24.225 64.5 -60.6
      vertex 27.225 23.4 -60.6
    endloop
  endfacet
  facet normal -0 0 1
    outer loop
      vertex 24.225 64.5 -60.6
      vertex 27.225 61.5 -60.6
      vertex 87.375 64.5 -60.6
    endloop
  endfacet
  facet normal -0 0 1
    outer loop
      vertex 84.375 23.4 -60.6
      vertex 87.375 20.4 -60.6
      vertex 84.375 61.5 -60.6
    endloop
  endfacet
  facet normal -0 0 1
    outer loop
      vertex 27.225 23.4 -60.6
      vertex 87.375 20.4 -60.6
      vertex 84.375 23.4 -60.6
    endloop
  endfacet
  facet normal 0 0 1
    outer loop
      vertex 27.225 23.4 -60.6
      vertex 24.225 20.4 -60.6
      vertex 87.375 20.4 -60.6
    endloop
  endfacet
  facet normal 0 0 1
    outer loop
      vertex 24.225 20.4 -60.6
      vertex 27.225 23.4 -60.6
      vertex 24.225 64.5 -60.6
    endloop
  endfacet
  facet normal 1 -0 0
    outer loop
      vertex 87.375 20.4 -60.6
      vertex 87.375 64.5 -86
      vertex 87.375 64.5 -60.6
    endloop
  endfacet
  facet normal 1 0 0
    outer loop
      vertex 87.375 64.5 -86
      vertex 87.375 20.4 -60.6
      vertex 87.375 20.4 -86
    endloop
  endfacet
  facet normal 0 1 -0
    outer loop
      vertex 87.375 64.5 -86
      vertex 24.225 64.5 -60.6
      vertex 87.375 64.5 -60.6
    endloop
  endfacet
  facet normal 0 1 0
    outer loop
      vertex 24.225 64.5 -60.6
      vertex 87.375 64.5 -86
      vertex 24.225 64.5 -86
    endloop
  endfacet
  facet normal 0 -1 0
    outer loop
      vertex 24.225 20.4 -86
      vertex 87.375 20.4 -60.6
      vertex 24.225 20.4 -60.6
    endloop
  endfacet
  facet normal 0 -1 -0
    outer loop
      vertex 87.375 20.4 -60.6
      vertex 24.225 20.4 -86
      vertex 87.375 20.4 -86
    endloop
  endfacet
  facet normal 1 -0 0
    outer loop
      vertex 27.225 23.4 -60.6
      vertex 27.225 61.5 -86.5
      vertex 27.225 61.5 -60.6
    endloop
  endfacet
  facet normal 1 0 0
    outer loop
      vertex 27.225 61.5 -86.5
      vertex 27.225 23.4 -60.6
      vertex 27.225 23.4 -86.5
    endloop
  endfacet
  facet normal -1 0 0
    outer loop
      vertex 84.375 23.4 -86.5
      vertex 84.375 61.5 -60.6
      vertex 84.375 61.5 -86.5
    endloop
  endfacet
  facet normal -1 -0 0
    outer loop
      vertex 84.375 61.5 -60.6
      vertex 84.375 23.4 -86.5
      vertex 84.375 23.4 -60.6
    endloop
  endfacet
  facet normal -0 0 1
    outer loop
      vertex 27.225 61.5 -86.5
      vertex 84.375 23.4 -86.5
      vertex 84.375 61.5 -86.5
    endloop
  endfacet
  facet normal 0 0 1
    outer loop
      vertex 84.375 23.4 -86.5
      vertex 27.225 61.5 -86.5
      vertex 27.225 23.4 -86.5
    endloop
  endfacet
  facet normal 0 1 -0
    outer loop
      vertex 84.375 23.4 -86.5
      vertex 27.225 23.4 -60.6
      vertex 84.375 23.4 -60.6
    endloop
  endfacet
  facet normal 0 1 0
    outer loop
      vertex 27.225 23.4 -60.6
      vertex 84.375 23.4 -86.5
      vertex 27.225 23.4 -86.5
    endloop
  endfacet
  facet normal 0 -1 0
    outer loop
      vertex 27.225 61.5 -86.5
      vertex 84.375 61.5 -60.6
      vertex 27.225 61.5 -60.6
    endloop
  endfacet
  facet normal 0 -1 -0
    outer loop
      vertex 84.375 61.5 -60.6
      vertex 27.225 61.5 -86.5
      vertex 84.375 61.5 -86.5
    endloop
  endfacet
endsolid OpenSCAD_Model
